<svg width="24" height="24" viewBox="0 0 24 24" fill="none" xmlns="http://www.w3.org/2000/svg">
<g id="Frame">
<g id="Group">
<path id="Vector" d="M9 21H8C6.895 21 6 20.106 6 19.001V14C6 13 4.5 12 4.5 12C4.5 12 6 11 6 10V5C6 4.46957 6.21071 3.96086 6.58579 3.58579C6.96086 3.21071 7.46957 3 8 3H9" stroke="#044AB3" stroke-width="2" stroke-linecap="round" stroke-linejoin="round"/>
<path id="Vector_2" d="M15 21H16C17.105 21 18 20.106 18 19.001V14C18 13 19.5 12 19.5 12C19.5 12 18 11 18 10V5C18 4.46957 17.7893 3.96086 17.4142 3.58579C17.0391 3.21071 16.5304 3 16 3H15" stroke="#044AB3" stroke-width="2" stroke-linecap="round" stroke-linejoin="round"/>
</g>
</g>
</svg>
