<svg width="48" height="48" viewBox="0 0 48 48" fill="none" xmlns="http://www.w3.org/2000/svg">
<rect width="48" height="48" rx="4" fill="black"/>
<path d="M24.8305 14.1801C24.5699 14.0613 24.2868 13.9998 24.0005 13.9998C23.7141 13.9998 23.431 14.0613 23.1705 14.1801L14.6005 18.0801C14.423 18.1584 14.2721 18.2865 14.1662 18.449C14.0603 18.6114 14.0039 18.8012 14.0039 18.9951C14.0039 19.189 14.0603 19.3788 14.1662 19.5413C14.2721 19.7037 14.423 19.8319 14.6005 19.9101L23.1805 23.8201C23.441 23.939 23.7241 24.0005 24.0105 24.0005C24.2968 24.0005 24.5799 23.939 24.8405 23.8201L33.4205 19.9201C33.5979 19.8419 33.7488 19.7137 33.8547 19.5513C33.9606 19.3888 34.017 19.199 34.017 19.0051C34.017 18.8112 33.9606 18.6214 33.8547 18.459C33.7488 18.2965 33.5979 18.1684 33.4205 18.0901L24.8305 14.1801Z" stroke="white" stroke-width="2" stroke-linecap="round" stroke-linejoin="round"/>
<path d="M14 24C13.9995 24.1913 14.0539 24.3787 14.1567 24.5399C14.2595 24.7012 14.4064 24.8297 14.58 24.91L23.18 28.82C23.4392 28.9374 23.7205 28.9981 24.005 28.9981C24.2895 28.9981 24.5708 28.9374 24.83 28.82L33.41 24.92C33.587 24.8404 33.737 24.7111 33.8418 24.5477C33.9466 24.3844 34.0015 24.1941 34 24" stroke="white" stroke-width="2" stroke-linecap="round" stroke-linejoin="round"/>
<path d="M14 29C13.9995 29.1913 14.0539 29.3787 14.1567 29.5399C14.2595 29.7012 14.4064 29.8297 14.58 29.91L23.18 33.82C23.4392 33.9374 23.7205 33.9981 24.005 33.9981C24.2895 33.9981 24.5708 33.9374 24.83 33.82L33.41 29.92C33.587 29.8404 33.737 29.7111 33.8418 29.5477C33.9466 29.3844 34.0015 29.1941 34 29" stroke="white" stroke-width="2" stroke-linecap="round" stroke-linejoin="round"/>
</svg>
