<svg width="24" height="24" viewBox="0 0 24 24" fill="none" xmlns="http://www.w3.org/2000/svg">
<path d="M14 4.1001L12 6.0001" stroke="#044AB3" stroke-width="2" stroke-linecap="round" stroke-linejoin="round"/>
<path d="M5.09922 8.0002L2.19922 7.2002" stroke="#044AB3" stroke-width="2" stroke-linecap="round" stroke-linejoin="round"/>
<path d="M5.99961 12L4.09961 14" stroke="#044AB3" stroke-width="2" stroke-linecap="round" stroke-linejoin="round"/>
<path d="M7.19922 2.2002L7.99922 5.1002" stroke="#044AB3" stroke-width="2" stroke-linecap="round" stroke-linejoin="round"/>
<path d="M9.03569 9.69015C8.99691 9.5988 8.98631 9.49795 9.00524 9.40054C9.02418 9.30313 9.07178 9.21359 9.14195 9.14342C9.21213 9.07325 9.30166 9.02564 9.39908 9.00671C9.49649 8.98777 9.59734 8.99837 9.68869 9.03715L20.6887 13.5372C20.7866 13.5773 20.8692 13.6475 20.9247 13.7376C20.9802 13.8277 21.0056 13.9331 20.9974 14.0386C20.9892 14.1441 20.9477 14.2443 20.8789 14.3247C20.8101 14.4051 20.7176 14.4616 20.6147 14.4862L16.2657 15.5272C16.0862 15.57 15.922 15.6618 15.7914 15.7922C15.6608 15.9226 15.5688 16.0867 15.5257 16.2662L14.4857 20.6161C14.4614 20.7194 14.405 20.8123 14.3245 20.8814C14.2439 20.9505 14.1435 20.9922 14.0377 21.0004C13.932 21.0087 13.8263 20.983 13.7361 20.9273C13.6458 20.8715 13.5756 20.7884 13.5357 20.6902L9.03569 9.69015Z" stroke="#044AB3" stroke-width="2" stroke-linecap="round" stroke-linejoin="round"/>
</svg>
