<svg width="24" height="24" viewBox="0 0 24 24" fill="none" xmlns="http://www.w3.org/2000/svg">
<g id="Frame" clip-path="url(#clip0_268_24755)">
<g id="Group">
<path id="Vector" d="M13.5 17.25H3C2.60218 17.25 2.22064 17.092 1.93934 16.8107C1.65804 16.5294 1.5 16.1478 1.5 15.75V9C1.5 8.60218 1.65804 8.22064 1.93934 7.93934C2.22064 7.65804 2.60218 7.5 3 7.5H13.5" stroke="#044AB3" stroke-width="2" stroke-linecap="round" stroke-linejoin="round"/>
<path id="Vector_2" d="M10.5 20.25H6" stroke="#044AB3" stroke-width="2" stroke-linecap="round" stroke-linejoin="round"/>
<path id="Vector_3" d="M19.5 6.75H16.5" stroke="#044AB3" stroke-width="2" stroke-linecap="round" stroke-linejoin="round"/>
<path id="Vector_4" d="M19.5 9.75H16.5" stroke="#044AB3" stroke-width="2" stroke-linecap="round" stroke-linejoin="round"/>
<path id="Vector_5" d="M21.75 3.75H14.25C13.8358 3.75 13.5 4.08579 13.5 4.5V19.5C13.5 19.9142 13.8358 20.25 14.25 20.25H21.75C22.1642 20.25 22.5 19.9142 22.5 19.5V4.5C22.5 4.08579 22.1642 3.75 21.75 3.75Z" stroke="#044AB3" stroke-width="2" stroke-linecap="round" stroke-linejoin="round"/>
<path id="Vector_6" d="M8.25 17.25V20.25" stroke="#044AB3" stroke-width="2" stroke-linecap="round" stroke-linejoin="round"/>
<path id="Vector_7" d="M18 18C18.6213 18 19.125 17.4963 19.125 16.875C19.125 16.2537 18.6213 15.75 18 15.75C17.3787 15.75 16.875 16.2537 16.875 16.875C16.875 17.4963 17.3787 18 18 18Z" fill="#044AB3"/>
</g>
</g>
<defs>
<clipPath id="clip0_268_24755">
<rect width="24" height="24" fill="white"/>
</clipPath>
</defs>
</svg>
