<svg width="122" height="22" viewBox="0 0 122 22" fill="none" xmlns="http://www.w3.org/2000/svg">
<path d="M51.7895 16.0438H44.3069L43.1731 19.359H38.8397L45.5162 1.27595H50.5802L57.4582 19.359H52.9233L51.7895 16.0438ZM50.555 12.5025L48.0608 5.19396L45.5414 12.5025H50.555Z" fill="currentColor"/>
<path d="M58.241 6.29903H62.1965V19.359H58.241V6.29903ZM58.241 1.27595H62.1965V4.51584H58.241V1.27595Z" fill="currentColor"/>
<path d="M68.0656 1.27595V15.3406C68.0656 15.7424 68.1495 16.0354 68.3175 16.2196C68.4855 16.3871 68.7962 16.4708 69.2497 16.4708H70.9377V19.359H68.1663C66.8898 19.359 65.8905 19.1079 65.1682 18.6056C64.4628 18.1033 64.1101 17.1489 64.1101 15.7424V1.27595H68.0656Z" fill="currentColor"/>
<path d="M76.1976 13.7834C76.1976 15.441 76.9198 16.2699 78.3643 16.2699C79.0865 16.2699 79.6912 16.0271 80.1783 15.5415C80.6653 15.0392 80.9089 14.3192 80.9089 13.3816V6.29903H84.8644V19.359H81.0097V17.601C80.5226 18.2372 79.9347 18.7395 79.2461 19.1079C78.5574 19.4763 77.7764 19.6604 76.903 19.6604C75.4585 19.6604 74.3164 19.2084 73.4766 18.3042C72.6536 17.3833 72.2421 16.0354 72.2421 14.2606V6.29903H76.1976V13.7834Z" fill="currentColor"/>
<path d="M103.172 11.8747C103.172 11.1212 103.021 10.5184 102.719 10.0663C102.417 9.61427 101.93 9.38823 101.258 9.38823C100.552 9.38823 99.9896 9.63938 99.5697 10.1417C99.1498 10.6273 98.9399 11.3389 98.9399 12.2765V19.359H94.9844V11.8747C94.9844 11.1212 94.8248 10.5184 94.5057 10.0663C94.2033 9.61427 93.7163 9.38823 93.0444 9.38823C92.339 9.38823 91.7763 9.63938 91.3564 10.1417C90.9365 10.6273 90.7265 11.3389 90.7265 12.2765V19.359H86.7711V6.29903H90.6258V8.15758C91.0625 7.48783 91.5999 6.96041 92.2382 6.5753C92.8932 6.1902 93.6491 5.99765 94.5057 5.99765C95.3623 5.99765 96.1265 6.19857 96.7983 6.60042C97.4702 7.00227 97.9909 7.59666 98.3604 8.38361C98.8643 7.66364 99.4857 7.08598 100.225 6.65065C100.981 6.21532 101.812 5.99765 102.719 5.99765C104.046 5.99765 105.112 6.4581 105.919 7.379C106.725 8.2999 107.128 9.63938 107.128 11.3975V19.359H103.172V11.8747Z" fill="currentColor"/>
<path d="M115.248 19.6604C113.854 19.6604 112.645 19.3674 111.62 18.7814C110.612 18.1954 109.84 17.3833 109.302 16.3452C108.781 15.3071 108.521 14.135 108.521 12.829C108.521 11.523 108.781 10.351 109.302 9.31288C109.84 8.27478 110.612 7.46272 111.62 6.87669C112.645 6.29066 113.854 5.99765 115.248 5.99765C117.398 5.99765 119.061 6.64228 120.236 7.93154C121.412 9.22079 122 10.9956 122 13.256V14.0095H112.351C112.502 14.8801 112.821 15.5499 113.308 16.0187C113.812 16.4875 114.459 16.7219 115.248 16.7219C115.937 16.7219 116.499 16.6131 116.936 16.3954C117.389 16.161 117.742 15.8094 117.994 15.3406H121.773C121.337 16.6633 120.547 17.7182 119.405 18.5051C118.28 19.2753 116.894 19.6604 115.248 19.6604ZM118.145 11.4728C117.961 10.6691 117.616 10.0496 117.112 9.61427C116.625 9.16219 116.004 8.93615 115.248 8.93615C114.492 8.93615 113.871 9.16219 113.384 9.61427C112.896 10.0496 112.561 10.6691 112.376 11.4728H118.145Z" fill="currentColor"/>
<path fill-rule="evenodd" clip-rule="evenodd" d="M16.3754 0C23.0957 6.07737e-05 28.9742 3.58856 32.1908 8.94762C32.9542 10.2197 32.9532 11.8075 32.1877 13.0783C28.9678 18.4232 23.097 22 16.3874 22C9.66688 21.9999 3.78795 18.4112 0.571521 13.0519C-0.191795 11.7798 -0.190428 10.1919 0.575161 8.92119C3.79518 3.57656 9.666 0 16.3754 0ZM18.2993 4.24626C17.5022 2.83087 15.5097 2.83088 14.7126 4.24626L9.33246 13.8003C8.53538 15.2158 9.53167 16.985 11.1258 16.985H21.8861C23.4802 16.985 24.4765 15.2158 23.6794 13.8003L18.2993 4.24626Z" fill="currentColor"/>
</svg>
