<svg width="48" height="48" viewBox="0 0 48 48" fill="none" xmlns="http://www.w3.org/2000/svg">
<rect width="48" height="48" rx="4" fill="black"/>
<path d="M27.5998 14.7C25.461 13.869 23.1015 13.7989 20.9171 14.5014C18.7328 15.2038 16.8564 16.6361 15.6028 18.558C14.3492 20.4798 13.7947 22.7743 14.0323 25.0565C14.2698 27.3387 15.285 29.4698 16.9075 31.0923C18.53 32.7148 20.6611 33.73 22.9433 33.9675C25.2255 34.2051 27.52 33.6505 29.4418 32.397C31.3637 31.1434 32.7959 29.267 33.4984 27.0826C34.2008 24.8983 34.1307 22.5388 33.2998 20.4" stroke="white" stroke-width="2" stroke-linecap="round" stroke-linejoin="round"/>
<path d="M24 26C25.1046 26 26 25.1046 26 24C26 22.8954 25.1046 22 24 22C22.8954 22 22 22.8954 22 24C22 25.1046 22.8954 26 24 26Z" stroke="white" stroke-width="2" stroke-linecap="round" stroke-linejoin="round"/>
<path d="M25.3994 22.6L30.9994 17" stroke="white" stroke-width="2" stroke-linecap="round" stroke-linejoin="round"/>
</svg>
