<svg width="120" height="22" viewBox="0 0 120 22" fill="none" xmlns="http://www.w3.org/2000/svg">
<path d="M49.7895 16.0438H42.3069L41.1731 19.359H36.8397L43.5162 1.27595H48.5802L55.4582 19.359H50.9233L49.7895 16.0438ZM48.555 12.5025L46.0608 5.19396L43.5414 12.5025H48.555Z" fill="currentColor"/>
<path d="M56.241 6.29903H60.1965V19.359H56.241V6.29903ZM56.241 1.27595H60.1965V4.51584H56.241V1.27595Z" fill="currentColor"/>
<path d="M66.0656 1.27595V15.3406C66.0656 15.7424 66.1495 16.0354 66.3175 16.2196C66.4855 16.3871 66.7962 16.4708 67.2497 16.4708H68.9377V19.359H66.1663C64.8898 19.359 63.8905 19.1079 63.1682 18.6056C62.4628 18.1033 62.1101 17.1489 62.1101 15.7424V1.27595H66.0656Z" fill="currentColor"/>
<path d="M74.1976 13.7834C74.1976 15.441 74.9198 16.2699 76.3643 16.2699C77.0865 16.2699 77.6912 16.0271 78.1783 15.5415C78.6653 15.0392 78.9089 14.3192 78.9089 13.3816V6.29903H82.8644V19.359H79.0097V17.601C78.5226 18.2372 77.9347 18.7395 77.2461 19.1079C76.5574 19.4763 75.7764 19.6604 74.903 19.6604C73.4585 19.6604 72.3164 19.2084 71.4766 18.3042C70.6536 17.3833 70.2421 16.0354 70.2421 14.2606V6.29903H74.1976V13.7834Z" fill="currentColor"/>
<path d="M101.172 11.8747C101.172 11.1212 101.021 10.5184 100.719 10.0663C100.417 9.61427 99.9296 9.38823 99.2577 9.38823C98.5523 9.38823 97.9896 9.63938 97.5697 10.1417C97.1498 10.6273 96.9399 11.3389 96.9399 12.2765V19.359H92.9844V11.8747C92.9844 11.1212 92.8248 10.5184 92.5057 10.0663C92.2033 9.61427 91.7163 9.38823 91.0444 9.38823C90.339 9.38823 89.7763 9.63938 89.3564 10.1417C88.9365 10.6273 88.7265 11.3389 88.7265 12.2765V19.359H84.7711V6.29903H88.6258V8.15758C89.0625 7.48783 89.5999 6.96041 90.2382 6.57531C90.8932 6.1902 91.6491 5.99765 92.5057 5.99765C93.3623 5.99765 94.1265 6.19857 94.7983 6.60042C95.4702 7.00227 95.9909 7.59666 96.3604 8.38361C96.8643 7.66364 97.4857 7.08598 98.2248 6.65065C98.9806 6.21532 99.812 5.99765 100.719 5.99765C102.046 5.99765 103.112 6.4581 103.919 7.379C104.725 8.2999 105.128 9.63938 105.128 11.3975V19.359H101.172V11.8747Z" fill="currentColor"/>
<path d="M113.248 19.6604C111.854 19.6604 110.645 19.3674 109.62 18.7814C108.612 18.1954 107.84 17.3833 107.302 16.3452C106.781 15.3071 106.521 14.135 106.521 12.829C106.521 11.523 106.781 10.351 107.302 9.31288C107.84 8.27478 108.612 7.46272 109.62 6.87669C110.645 6.29066 111.854 5.99765 113.248 5.99765C115.398 5.99765 117.061 6.64228 118.236 7.93154C119.412 9.22079 120 10.9956 120 13.256V14.0095H110.351C110.502 14.8801 110.821 15.5499 111.308 16.0187C111.812 16.4875 112.459 16.7219 113.248 16.7219C113.937 16.7219 114.499 16.6131 114.936 16.3954C115.389 16.161 115.742 15.8094 115.994 15.3406H119.773C119.337 16.6633 118.547 17.7182 117.405 18.5051C116.28 19.2753 114.894 19.6604 113.248 19.6604ZM116.145 11.4728C115.961 10.6691 115.616 10.0496 115.112 9.61427C114.625 9.16219 114.004 8.93615 113.248 8.93615C112.492 8.93615 111.871 9.16219 111.384 9.61427C110.897 10.0496 110.561 10.6691 110.376 11.4728H116.145Z" fill="currentColor"/>
<path fill-rule="evenodd" clip-rule="evenodd" d="M16.3754 0C23.0957 6.07737e-05 28.9742 3.58856 32.1908 8.94762C32.9542 10.2197 32.9532 11.8075 32.1877 13.0783C28.9678 18.4232 23.097 22 16.3874 22C9.66688 21.9999 3.78795 18.4112 0.571521 13.0519C-0.191795 11.7798 -0.190428 10.1919 0.575161 8.92119C3.79518 3.57656 9.666 0 16.3754 0ZM18.2993 4.24626C17.5022 2.83087 15.5097 2.83088 14.7126 4.24626L9.33246 13.8003C8.53538 15.2158 9.53167 16.985 11.1258 16.985H21.8861C23.4802 16.985 24.4765 15.2158 23.6794 13.8003L18.2993 4.24626Z" fill="currentColor"/>
</svg>
