<svg width="105" height="24" viewBox="0 0 105 24" fill="none" xmlns="http://www.w3.org/2000/svg">
<path d="M33.1753 17.228V7.25586H35.0985V11.373H39.8567V7.25586H41.7798V17.228H39.8567V13.0967H35.0985V17.228H33.1753Z" fill="white"/>
<path d="M42.9331 17.228L46.3948 7.25586H49.3723L52.7771 17.228H50.7827L50.0846 15.1482H45.6398L44.9275 17.228H42.9331ZM46.2096 13.4101H49.5148L47.8907 8.48105L46.2096 13.4101Z" fill="white"/>
<path d="M55.5146 17.228C54.5945 17.228 53.8486 16.4822 53.8486 15.5621V7.25586H55.7719V14.892C55.7719 15.1987 56.0205 15.4473 56.3271 15.4473H60.9222V17.228H55.5146Z" fill="white"/>
<path d="M71.2917 12.2563C71.3059 13.6667 70.8073 14.8633 69.8101 15.8605C68.8129 16.8435 67.6162 17.3421 66.2059 17.3421C64.7955 17.3421 63.5988 16.8435 62.6159 15.8605C61.6329 14.8633 61.1343 13.6667 61.1343 12.2563C61.1343 10.8459 61.6329 9.64927 62.6159 8.65211C63.5988 7.65486 64.7955 7.15625 66.2059 7.15625C67.6162 7.15625 68.8129 7.65486 69.7959 8.65211C70.7788 9.63502 71.2775 10.8459 71.2917 12.2563ZM66.2059 8.93701C65.3083 8.93701 64.5675 9.26465 63.955 9.90576C63.3424 10.5468 63.0432 11.3304 63.0432 12.2563C63.0432 13.1681 63.3424 13.9516 63.9407 14.5927C64.5533 15.2338 65.3083 15.5472 66.2059 15.5472C67.1033 15.5472 67.8584 15.2338 68.4709 14.5927C69.0835 13.9516 69.3827 13.1823 69.3827 12.2563C69.3827 11.3304 69.0835 10.5468 68.4709 9.90576C67.8584 9.26465 67.1033 8.93701 66.2059 8.93701Z" fill="white"/>
<path d="M78.5225 17.228C77.6028 17.228 76.8569 16.4822 76.8569 15.5621V7.25586H78.7803V14.892C78.7803 15.1987 79.0289 15.4473 79.3354 15.4473H83.9303V17.228H78.5225Z" fill="white"/>
<path d="M84.8091 17.228L88.2705 7.25586H91.2481L94.653 17.228H92.6586L91.9603 15.1482H87.5157L86.8034 17.228H84.8091ZM88.0855 13.4101H91.3905L89.767 8.48105L88.0855 13.4101Z" fill="white"/>
<path d="M95.7393 17.228V7.25586H100.298C101.238 7.25586 101.993 7.51229 102.549 8.01088C103.104 8.50954 103.389 9.13633 103.389 9.8914C103.389 10.8458 102.905 11.6721 102.122 12.128C103.218 12.5839 103.789 13.4813 103.789 14.5498C103.789 15.3334 103.503 15.9744 102.933 16.4731C102.363 16.9716 101.594 17.228 100.611 17.228H95.7393ZM97.5911 11.4584H100.226C101.01 11.4584 101.552 10.9028 101.552 10.2048C101.552 9.52095 101.025 8.97963 100.241 8.97963H97.5911V11.4584ZM97.5911 15.5043H100.483C101.295 15.5043 101.837 14.9772 101.837 14.2507C101.837 13.5241 101.281 13.0112 100.469 13.0112H97.5911V15.5043Z" fill="white"/>
<mask id="mask0_93_443" style="mask-type:luminance" maskUnits="userSpaceOnUse" x="0" y="0" width="24" height="24">
<path d="M23.6129 0.193359H0V23.8063H23.6129V0.193359Z" fill="white"/>
</mask>
<g mask="url(#mask0_93_443)">
<path d="M18.7673 0.309488C18.837 0.15465 19.0693 0.15465 19.1389 0.309488C19.9905 2.26046 21.5467 3.80884 23.4976 4.66046C23.6525 4.73013 23.6525 4.96239 23.4976 5.03207C21.5467 5.87594 19.9905 7.43207 19.1389 9.38304C19.0693 9.53788 18.837 9.53788 18.7673 9.38304C17.9157 7.43207 16.3596 5.88368 14.4086 5.03207C14.2538 4.96239 14.2538 4.73013 14.4086 4.66046C16.3596 3.81659 17.9157 2.26046 18.7673 0.309488Z" fill="#FDC448"/>
<path d="M23.1097 12.2482C23.1097 18.6353 17.9303 23.8069 11.551 23.8069C5.17161 23.8069 0 18.6353 0 12.2482C0 5.86113 5.17161 0.697266 11.551 0.697266V4.4521C7.24645 4.4521 3.75484 7.9437 3.75484 12.2482C3.75484 16.5527 7.24645 20.0443 11.551 20.0443C15.8555 20.0443 19.3471 16.5605 19.3471 12.2482H23.1097Z" fill="white"/>
</g>
</svg>
