<svg width="48" height="48" viewBox="0 0 48 48" fill="none" xmlns="http://www.w3.org/2000/svg">
<rect width="48" height="48" rx="4" fill="black"/>
<path d="M25.0001 25.7399C24.6961 25.9154 24.3512 26.0078 24.0001 26.0078C23.649 26.0078 23.3042 25.9154 23.0001 25.7399L14.5001 20.8699C14.3462 20.7827 14.2182 20.6562 14.1291 20.5034C14.0401 20.3505 13.9932 20.1768 13.9932 19.9999C13.9932 19.823 14.0401 19.6493 14.1291 19.4964C14.2182 19.3436 14.3462 19.2171 14.5001 19.1299L23.0001 14.2599C23.3042 14.0844 23.649 13.9919 24.0001 13.9919C24.3512 13.9919 24.6961 14.0844 25.0001 14.2599L33.5001 19.1299C33.654 19.2171 33.782 19.3436 33.8711 19.4964C33.9601 19.6493 34.0071 19.823 34.0071 19.9999C34.0071 20.1768 33.9601 20.3505 33.8711 20.5034C33.782 20.6562 33.654 20.7827 33.5001 20.8699L25.0001 25.7399Z" stroke="white" stroke-width="2" stroke-linecap="round" stroke-linejoin="round"/>
<path d="M32.0001 26.2849L33.5001 27.1299C33.654 27.2171 33.782 27.3436 33.8711 27.4965C33.9601 27.6493 34.0071 27.823 34.0071 27.9999C34.0071 28.1768 33.9601 28.3505 33.8711 28.5034C33.782 28.6562 33.654 28.7827 33.5001 28.8699L25.0001 33.7399C24.6961 33.9154 24.3512 34.0079 24.0001 34.0079C23.649 34.0079 23.3042 33.9154 23.0001 33.7399L14.5001 28.8699C14.3462 28.7827 14.2182 28.6562 14.1291 28.5034C14.0401 28.3505 13.9932 28.1768 13.9932 27.9999C13.9932 27.823 14.0401 27.6493 14.1291 27.4965C14.2182 27.3436 14.3462 27.2171 14.5001 27.1299L16.0001 26.2849" stroke="white" stroke-width="2" stroke-linecap="round" stroke-linejoin="round"/>
</svg>
