<svg width="48" height="48" viewBox="0 0 48 48" fill="none" xmlns="http://www.w3.org/2000/svg">
<rect width="48" height="48" rx="4" fill="black"/>
<path d="M24 34C29.5228 34 34 29.5228 34 24C34 18.4772 29.5228 14 24 14C18.4772 14 14 18.4772 14 24C14 29.5228 18.4772 34 24 34Z" stroke="white" stroke-width="2" stroke-linecap="round" stroke-linejoin="round"/>
<path d="M28.2398 19.76L26.4358 25.171C26.3376 25.4656 26.1722 25.7333 25.9526 25.9528C25.733 26.1724 25.4653 26.3378 25.1708 26.436L19.7598 28.24L21.5638 22.829C21.6619 22.5344 21.8274 22.2668 22.0469 22.0472C22.2665 21.8276 22.5342 21.6622 22.8288 21.564L28.2398 19.76Z" stroke="white" stroke-width="2" stroke-linecap="round" stroke-linejoin="round"/>
</svg>
