<svg width="158" height="28" viewBox="0 0 158 28" fill="none" xmlns="http://www.w3.org/2000/svg">
<path d="M29.6665 7.48402C29.6665 6.13256 30.7704 5.03699 32.132 5.03699H45.6663C47.0279 5.03699 48.1318 6.13256 48.1318 7.48402V11.8574C48.1318 13.2089 47.0279 14.3044 45.6663 14.3044H32.132C30.7704 14.3044 29.6665 13.2089 29.6665 11.8574V7.48402Z" fill="#808080"/>
<path d="M44.2809 16.9552C44.6645 16.7348 45.1372 16.7348 45.5208 16.9552L47.5024 18.0939C47.886 18.3144 48.1223 18.7218 48.1223 19.1627V21.4401C48.1223 21.881 47.886 22.2884 47.5024 22.5089L45.5208 23.6476C45.1372 23.868 44.6645 23.868 44.2809 23.6476L42.2994 22.5089C41.9157 22.2884 41.6794 21.881 41.6794 21.4401V19.1627C41.6794 18.7218 41.9157 18.3144 42.2994 18.0939L44.2809 16.9552Z" fill="#808080"/>
<path d="M35.4196 16.9109C34.8514 16.5878 34.1512 16.5878 33.5829 16.9109L30.6478 18.58C30.0795 18.9032 29.7295 19.5004 29.7295 20.1467V23.4849C29.7295 24.1312 30.0795 24.7284 30.6478 25.0515L33.5829 26.7206C34.1512 27.0438 34.8514 27.0438 35.4196 26.7206L38.3548 25.0515C38.923 24.7284 39.2731 24.1312 39.2731 23.4849V20.1467C39.2731 19.5004 38.923 18.9032 38.3548 18.58L35.4196 16.9109Z" fill="#808080"/>
<path d="M59.2372 9.08023H66.8055V10.7318H61.1561V13.5916H66.1147V15.1514H61.1561V19.9992H59.2372V9.08023Z" fill="#808080"/>
<path d="M68.1376 9.08023H69.8876V19.9992H68.1376V9.08023Z" fill="#808080"/>
<path d="M75.4328 20.2133C74.7982 20.2133 74.2302 20.1114 73.7288 19.9075C73.2375 19.6934 72.8179 19.4028 72.4699 19.0358C72.1322 18.6688 71.8712 18.2304 71.687 17.7206C71.513 17.2108 71.426 16.6501 71.426 16.0384C71.426 15.4369 71.513 14.8813 71.687 14.3715C71.8712 13.8617 72.1322 13.4234 72.4699 13.0563C72.8179 12.6893 73.2375 12.4038 73.7288 12.1999C74.2302 11.9858 74.7982 11.8788 75.4328 11.8788C76.0673 11.8788 76.6302 11.9858 77.1214 12.1999C77.6229 12.4038 78.0425 12.6893 78.3803 13.0563C78.7282 13.4234 78.9892 13.8617 79.1632 14.3715C79.3474 14.8813 79.4395 15.4369 79.4395 16.0384C79.4395 16.6501 79.3474 17.2108 79.1632 17.7206C78.9892 18.2304 78.7282 18.6688 78.3803 19.0358C78.0425 19.4028 77.6229 19.6934 77.1214 19.9075C76.6302 20.1114 76.0673 20.2133 75.4328 20.2133ZM75.4328 18.837C75.8217 18.837 76.1594 18.7554 76.446 18.5923C76.7325 18.4292 76.9679 18.2151 77.1521 17.95C77.3364 17.6849 77.4694 17.3893 77.5513 17.063C77.6434 16.7266 77.6894 16.385 77.6894 16.0384C77.6894 15.702 77.6434 15.3655 77.5513 15.0291C77.4694 14.6927 77.3364 14.397 77.1521 14.1421C76.9679 13.877 76.7325 13.6629 76.446 13.4998C76.1594 13.3367 75.8217 13.2551 75.4328 13.2551C75.0439 13.2551 74.7061 13.3367 74.4196 13.4998C74.133 13.6629 73.8976 13.877 73.7134 14.1421C73.5292 14.397 73.391 14.6927 73.2989 15.0291C73.217 15.3655 73.1761 15.702 73.1761 16.0384C73.1761 16.385 73.217 16.7266 73.2989 17.063C73.391 17.3893 73.5292 17.6849 73.7134 17.95C73.8976 18.2151 74.133 18.4292 74.4196 18.5923C74.7061 18.7554 75.0439 18.837 75.4328 18.837Z" fill="#808080"/>
<path d="M80.1729 12.0929H82.0304L83.5809 17.9959H83.6116L85.1007 12.0929H86.8661L88.2938 17.9959H88.3245L89.9364 12.0929H91.7172L89.2303 19.9992H87.4342L85.9604 14.1268H85.9297L84.4713 19.9992H82.6291L80.1729 12.0929Z" fill="#808080"/>
<path d="M94.163 17.4606C94.2142 17.9704 94.4086 18.3272 94.7464 18.5311C95.0841 18.735 95.4884 18.837 95.9591 18.837C96.1229 18.837 96.3071 18.8268 96.5118 18.8064C96.7267 18.7758 96.9263 18.7248 97.1105 18.6535C97.2947 18.5821 97.4431 18.4801 97.5557 18.3476C97.6785 18.2049 97.7348 18.0214 97.7246 17.7971C97.7143 17.5728 97.6325 17.3893 97.4789 17.2465C97.3254 17.1038 97.1259 16.9917 96.8802 16.9101C96.6448 16.8183 96.3736 16.7419 96.0666 16.6807C95.7596 16.6195 95.4474 16.5533 95.1302 16.4819C94.8027 16.4105 94.4854 16.3239 94.1784 16.2219C93.8816 16.12 93.6104 15.9823 93.3647 15.809C93.1294 15.6357 92.94 15.4165 92.7967 15.1514C92.6535 14.8762 92.5818 14.5397 92.5818 14.1421C92.5818 13.7139 92.6842 13.3571 92.8889 13.0716C93.1038 12.776 93.3699 12.5415 93.6871 12.3682C94.0146 12.1846 94.3728 12.0572 94.7617 11.9858C95.1609 11.9145 95.5395 11.8788 95.8977 11.8788C96.3071 11.8788 96.696 11.9247 97.0645 12.0164C97.4431 12.098 97.7809 12.2356 98.0777 12.4293C98.3847 12.623 98.6354 12.8779 98.8299 13.194C99.0346 13.4998 99.1625 13.8719 99.2137 14.3103H97.3868C97.305 13.8923 97.1105 13.612 96.8035 13.4692C96.5067 13.3265 96.1638 13.2551 95.7749 13.2551C95.6521 13.2551 95.5037 13.2653 95.3297 13.2857C95.166 13.3061 95.0074 13.3469 94.8538 13.4081C94.7106 13.459 94.5877 13.5406 94.4854 13.6527C94.3831 13.7547 94.3319 13.8923 94.3319 14.0657C94.3319 14.2797 94.4035 14.4531 94.5468 14.5856C94.7003 14.7181 94.8948 14.8303 95.1302 14.922C95.3758 15.0036 95.6521 15.075 95.9591 15.1361C96.2662 15.1973 96.5834 15.2636 96.9109 15.3349C97.2282 15.4063 97.5403 15.493 97.8474 15.5949C98.1544 15.6969 98.4256 15.8345 98.661 16.0078C98.9066 16.1811 99.1011 16.4003 99.2444 16.6654C99.3979 16.9305 99.4746 17.2567 99.4746 17.6441C99.4746 18.1131 99.3672 18.5107 99.1523 18.837C98.9373 19.1632 98.6559 19.4283 98.3079 19.6322C97.9702 19.8361 97.5915 19.9839 97.1719 20.0757C96.7523 20.1674 96.3378 20.2133 95.9284 20.2133C95.427 20.2133 94.9613 20.1572 94.5315 20.0451C94.1118 19.9329 93.7434 19.7647 93.4262 19.5404C93.1191 19.3059 92.8735 19.0205 92.6893 18.684C92.5153 18.3374 92.4232 17.9296 92.413 17.4606H94.163Z" fill="#808080"/>
<path d="M103.981 9.08023H106.023L110.245 19.9992H108.187L107.159 17.1089H102.784L101.755 19.9992H99.7748L103.981 9.08023ZM103.306 15.6561H106.652L105.01 10.9612H104.964L103.306 15.6561Z" fill="#808080"/>
<path d="M111.089 12.0929H112.747V13.1634H112.777C113.023 12.7046 113.366 12.3784 113.806 12.1846C114.246 11.9807 114.722 11.8788 115.234 11.8788C115.858 11.8788 116.4 11.9909 116.861 12.2152C117.332 12.4293 117.721 12.7301 118.028 13.1175C118.335 13.4947 118.565 13.9382 118.718 14.448C118.872 14.9577 118.949 15.5032 118.949 16.0843C118.949 16.6144 118.877 17.1293 118.734 17.6288C118.601 18.1284 118.391 18.5719 118.104 18.9593C117.828 19.3365 117.475 19.6424 117.045 19.8769C116.615 20.1012 116.109 20.2133 115.525 20.2133C115.269 20.2133 115.014 20.1878 114.758 20.1369C114.502 20.0961 114.256 20.0247 114.021 19.9228C113.785 19.8208 113.565 19.6934 113.361 19.5404C113.166 19.3773 113.003 19.1887 112.87 18.9746H112.839V22.9201H111.089V12.0929ZM117.199 16.0537C117.199 15.6969 117.153 15.3502 117.06 15.0138C116.968 14.6774 116.83 14.3817 116.646 14.1268C116.462 13.8617 116.231 13.6527 115.955 13.4998C115.679 13.3367 115.362 13.2551 115.003 13.2551C114.267 13.2551 113.709 13.51 113.33 14.0198C112.962 14.5295 112.777 15.2075 112.777 16.0537C112.777 16.4513 112.823 16.8234 112.916 17.1701C113.018 17.5065 113.166 17.7971 113.361 18.0418C113.555 18.2864 113.785 18.4801 114.052 18.6229C114.328 18.7656 114.645 18.837 115.003 18.837C115.403 18.837 115.74 18.7554 116.017 18.5923C116.293 18.4292 116.518 18.2202 116.692 17.9653C116.876 17.7002 117.004 17.4046 117.076 17.0783C117.158 16.7419 117.199 16.4003 117.199 16.0537Z" fill="#808080"/>
<path d="M120.474 12.0929H122.131V13.1634H122.162C122.408 12.7046 122.751 12.3784 123.191 12.1846C123.631 11.9807 124.107 11.8788 124.618 11.8788C125.243 11.8788 125.785 11.9909 126.246 12.2152C126.716 12.4293 127.105 12.7301 127.412 13.1175C127.719 13.4947 127.95 13.9382 128.103 14.448C128.257 14.9577 128.333 15.5032 128.333 16.0843C128.333 16.6144 128.262 17.1293 128.119 17.6288C127.986 18.1284 127.776 18.5719 127.489 18.9593C127.213 19.3365 126.86 19.6424 126.43 19.8769C126 20.1012 125.493 20.2133 124.91 20.2133C124.654 20.2133 124.398 20.1878 124.143 20.1369C123.887 20.0961 123.641 20.0247 123.406 19.9228C123.17 19.8208 122.95 19.6934 122.746 19.5404C122.551 19.3773 122.387 19.1887 122.254 18.9746H122.224V22.9201H120.474V12.0929ZM126.583 16.0537C126.583 15.6969 126.537 15.3502 126.445 15.0138C126.353 14.6774 126.215 14.3817 126.031 14.1268C125.847 13.8617 125.616 13.6527 125.34 13.4998C125.064 13.3367 124.746 13.2551 124.388 13.2551C123.651 13.2551 123.094 13.51 122.715 14.0198C122.346 14.5295 122.162 15.2075 122.162 16.0537C122.162 16.4513 122.208 16.8234 122.3 17.1701C122.403 17.5065 122.551 17.7971 122.746 18.0418C122.94 18.2864 123.17 18.4801 123.436 18.6229C123.713 18.7656 124.03 18.837 124.388 18.837C124.787 18.837 125.125 18.7554 125.401 18.5923C125.678 18.4292 125.903 18.2202 126.077 17.9653C126.261 17.7002 126.389 17.4046 126.461 17.0783C126.542 16.7419 126.583 16.4003 126.583 16.0537Z" fill="#808080"/>
</svg>
