<svg width="210" height="76" viewBox="0 0 210 76" fill="none" xmlns="http://www.w3.org/2000/svg">
<path d="M53.6665 31.484C53.6665 30.1326 54.7704 29.037 56.132 29.037H69.6663C71.0279 29.037 72.1318 30.1326 72.1318 31.484V35.8574C72.1318 37.2089 71.0279 38.3044 69.6663 38.3044H56.132C54.7704 38.3044 53.6665 37.2089 53.6665 35.8574V31.484Z" fill="black"/>
<path d="M68.2809 40.9552C68.6645 40.7348 69.1372 40.7348 69.5208 40.9552L71.5024 42.0939C71.886 42.3144 72.1223 42.7218 72.1223 43.1627V45.4401C72.1223 45.881 71.886 46.2884 71.5024 46.5089L69.5208 47.6476C69.1372 47.868 68.6645 47.868 68.2809 47.6476L66.2994 46.5089C65.9157 46.2884 65.6794 45.881 65.6794 45.4401V43.1627C65.6794 42.7218 65.9157 42.3144 66.2994 42.0939L68.2809 40.9552Z" fill="black"/>
<path d="M59.4196 40.9109C58.8514 40.5878 58.1512 40.5878 57.5829 40.9109L54.6478 42.58C54.0795 42.9032 53.7295 43.5004 53.7295 44.1467V47.4849C53.7295 48.1312 54.0795 48.7284 54.6478 49.0515L57.5829 50.7206C58.1512 51.0438 58.8514 51.0438 59.4196 50.7206L62.3548 49.0515C62.923 48.7284 63.2731 48.1312 63.2731 47.4849V44.1467C63.2731 43.5004 62.923 42.9032 62.3548 42.58L59.4196 40.9109Z" fill="black"/>
<path d="M83.2372 33.0802H90.8055V34.7318H85.1561V37.5916H90.1147V39.1514H85.1561V43.9992H83.2372V33.0802Z" fill="black"/>
<path d="M92.1376 33.0802H93.8876V43.9992H92.1376V33.0802Z" fill="black"/>
<path d="M99.4328 44.2133C98.7982 44.2133 98.2302 44.1114 97.7288 43.9075C97.2375 43.6934 96.8179 43.4028 96.4699 43.0358C96.1322 42.6688 95.8712 42.2304 95.687 41.7206C95.513 41.2108 95.426 40.6501 95.426 40.0384C95.426 39.4369 95.513 38.8813 95.687 38.3715C95.8712 37.8617 96.1322 37.4234 96.4699 37.0563C96.8179 36.6893 97.2375 36.4038 97.7288 36.1999C98.2302 35.9858 98.7982 35.8788 99.4328 35.8788C100.067 35.8788 100.63 35.9858 101.121 36.1999C101.623 36.4038 102.043 36.6893 102.38 37.0563C102.728 37.4234 102.989 37.8617 103.163 38.3715C103.347 38.8813 103.44 39.4369 103.44 40.0384C103.44 40.6501 103.347 41.2108 103.163 41.7206C102.989 42.2304 102.728 42.6688 102.38 43.0358C102.043 43.4028 101.623 43.6934 101.121 43.9075C100.63 44.1114 100.067 44.2133 99.4328 44.2133ZM99.4328 42.837C99.8217 42.837 100.159 42.7554 100.446 42.5923C100.733 42.4292 100.968 42.2151 101.152 41.95C101.336 41.6849 101.469 41.3893 101.551 41.063C101.643 40.7266 101.689 40.385 101.689 40.0384C101.689 39.702 101.643 39.3655 101.551 39.0291C101.469 38.6927 101.336 38.397 101.152 38.1421C100.968 37.877 100.733 37.6629 100.446 37.4998C100.159 37.3367 99.8217 37.2551 99.4328 37.2551C99.0439 37.2551 98.7061 37.3367 98.4196 37.4998C98.133 37.6629 97.8976 37.877 97.7134 38.1421C97.5292 38.397 97.391 38.6927 97.2989 39.0291C97.217 39.3655 97.1761 39.702 97.1761 40.0384C97.1761 40.385 97.217 40.7266 97.2989 41.063C97.391 41.3893 97.5292 41.6849 97.7134 41.95C97.8976 42.2151 98.133 42.4292 98.4196 42.5923C98.7061 42.7554 99.0439 42.837 99.4328 42.837Z" fill="black"/>
<path d="M104.173 36.0929H106.03L107.581 41.9959H107.612L109.101 36.0929H110.866L112.294 41.9959H112.325L113.936 36.0929H115.717L113.23 43.9992H111.434L109.96 38.1268H109.93L108.471 43.9992H106.629L104.173 36.0929Z" fill="black"/>
<path d="M118.163 41.4606C118.214 41.9704 118.409 42.3272 118.746 42.5311C119.084 42.735 119.488 42.837 119.959 42.837C120.123 42.837 120.307 42.8268 120.512 42.8064C120.727 42.7758 120.926 42.7248 121.111 42.6535C121.295 42.5821 121.443 42.4801 121.556 42.3476C121.679 42.2049 121.735 42.0214 121.725 41.7971C121.714 41.5728 121.632 41.3893 121.479 41.2465C121.325 41.1038 121.126 40.9917 120.88 40.9101C120.645 40.8183 120.374 40.7419 120.067 40.6807C119.76 40.6195 119.447 40.5533 119.13 40.4819C118.803 40.4105 118.485 40.3239 118.178 40.2219C117.882 40.12 117.61 39.9823 117.365 39.809C117.129 39.6357 116.94 39.4165 116.797 39.1514C116.653 38.8762 116.582 38.5397 116.582 38.1421C116.582 37.7139 116.684 37.3571 116.889 37.0716C117.104 36.776 117.37 36.5415 117.687 36.3682C118.015 36.1846 118.373 36.0572 118.762 35.9858C119.161 35.9145 119.54 35.8788 119.898 35.8788C120.307 35.8788 120.696 35.9247 121.064 36.0164C121.443 36.098 121.781 36.2356 122.078 36.4293C122.385 36.623 122.635 36.8779 122.83 37.194C123.035 37.4998 123.162 37.8719 123.214 38.3103H121.387C121.305 37.8923 121.111 37.612 120.803 37.4692C120.507 37.3265 120.164 37.2551 119.775 37.2551C119.652 37.2551 119.504 37.2653 119.33 37.2857C119.166 37.3061 119.007 37.3469 118.854 37.4081C118.711 37.459 118.588 37.5406 118.485 37.6527C118.383 37.7547 118.332 37.8923 118.332 38.0657C118.332 38.2797 118.404 38.4531 118.547 38.5856C118.7 38.7181 118.895 38.8303 119.13 38.922C119.376 39.0036 119.652 39.075 119.959 39.1361C120.266 39.1973 120.583 39.2636 120.911 39.3349C121.228 39.4063 121.54 39.493 121.847 39.5949C122.154 39.6969 122.426 39.8345 122.661 40.0078C122.907 40.1811 123.101 40.4003 123.244 40.6654C123.398 40.9305 123.475 41.2567 123.475 41.6441C123.475 42.1131 123.367 42.5107 123.152 42.837C122.937 43.1632 122.656 43.4283 122.308 43.6322C121.97 43.8361 121.592 43.9839 121.172 44.0757C120.752 44.1674 120.338 44.2133 119.928 44.2133C119.427 44.2133 118.961 44.1572 118.531 44.0451C118.112 43.9329 117.743 43.7647 117.426 43.5404C117.119 43.3059 116.873 43.0205 116.689 42.684C116.515 42.3374 116.423 41.9296 116.413 41.4606H118.163Z" fill="black"/>
<path d="M127.981 33.0802H130.023L134.245 43.9992H132.187L131.159 41.1089H126.784L125.755 43.9992H123.775L127.981 33.0802ZM127.306 39.6561H130.652L129.01 34.9612H128.964L127.306 39.6561Z" fill="black"/>
<path d="M135.089 36.0929H136.747V37.1634H136.777C137.023 36.7046 137.366 36.3784 137.806 36.1846C138.246 35.9807 138.722 35.8788 139.234 35.8788C139.858 35.8788 140.4 35.9909 140.861 36.2152C141.332 36.4293 141.721 36.7301 142.028 37.1175C142.335 37.4947 142.565 37.9382 142.718 38.448C142.872 38.9577 142.949 39.5032 142.949 40.0843C142.949 40.6144 142.877 41.1293 142.734 41.6288C142.601 42.1284 142.391 42.5719 142.104 42.9593C141.828 43.3365 141.475 43.6424 141.045 43.8769C140.615 44.1012 140.109 44.2133 139.525 44.2133C139.269 44.2133 139.014 44.1878 138.758 44.1369C138.502 44.0961 138.256 44.0247 138.021 43.9228C137.785 43.8208 137.565 43.6934 137.361 43.5404C137.166 43.3773 137.003 43.1887 136.87 42.9746H136.839V46.9201H135.089V36.0929ZM141.199 40.0537C141.199 39.6969 141.153 39.3502 141.06 39.0138C140.968 38.6774 140.83 38.3817 140.646 38.1268C140.462 37.8617 140.231 37.6527 139.955 37.4998C139.679 37.3367 139.362 37.2551 139.003 37.2551C138.267 37.2551 137.709 37.51 137.33 38.0198C136.962 38.5295 136.777 39.2075 136.777 40.0537C136.777 40.4513 136.823 40.8234 136.916 41.1701C137.018 41.5065 137.166 41.7971 137.361 42.0418C137.555 42.2864 137.785 42.4801 138.052 42.6229C138.328 42.7656 138.645 42.837 139.003 42.837C139.403 42.837 139.74 42.7554 140.017 42.5923C140.293 42.4292 140.518 42.2202 140.692 41.9653C140.876 41.7002 141.004 41.4046 141.076 41.0783C141.158 40.7419 141.199 40.4003 141.199 40.0537Z" fill="black"/>
<path d="M144.474 36.0929H146.131V37.1634H146.162C146.408 36.7046 146.751 36.3784 147.191 36.1846C147.631 35.9807 148.107 35.8788 148.618 35.8788C149.243 35.8788 149.785 35.9909 150.246 36.2152C150.716 36.4293 151.105 36.7301 151.412 37.1175C151.719 37.4947 151.95 37.9382 152.103 38.448C152.257 38.9577 152.333 39.5032 152.333 40.0843C152.333 40.6144 152.262 41.1293 152.119 41.6288C151.986 42.1284 151.776 42.5719 151.489 42.9593C151.213 43.3365 150.86 43.6424 150.43 43.8769C150 44.1012 149.493 44.2133 148.91 44.2133C148.654 44.2133 148.398 44.1878 148.143 44.1369C147.887 44.0961 147.641 44.0247 147.406 43.9228C147.17 43.8208 146.95 43.6934 146.746 43.5404C146.551 43.3773 146.387 43.1887 146.254 42.9746H146.224V46.9201H144.474V36.0929ZM150.583 40.0537C150.583 39.6969 150.537 39.3502 150.445 39.0138C150.353 38.6774 150.215 38.3817 150.031 38.1268C149.847 37.8617 149.616 37.6527 149.34 37.4998C149.064 37.3367 148.746 37.2551 148.388 37.2551C147.651 37.2551 147.094 37.51 146.715 38.0198C146.346 38.5295 146.162 39.2075 146.162 40.0537C146.162 40.4513 146.208 40.8234 146.3 41.1701C146.403 41.5065 146.551 41.7971 146.746 42.0418C146.94 42.2864 147.17 42.4801 147.436 42.6229C147.713 42.7656 148.03 42.837 148.388 42.837C148.787 42.837 149.125 42.7554 149.401 42.5923C149.678 42.4292 149.903 42.2202 150.077 41.9653C150.261 41.7002 150.389 41.4046 150.461 41.0783C150.542 40.7419 150.583 40.4003 150.583 40.0537Z" fill="black"/>
</svg>
