<svg width="210" height="76" viewBox="0 0 210 76" fill="none" xmlns="http://www.w3.org/2000/svg">
<path d="M80.3915 30.7705H83.6825V31.4721C83.6825 31.858 83.6884 32.1738 83.6955 32.1738C83.7027 32.1738 83.9104 32.0466 84.1571 31.8912C87.0677 30.0573 91.2987 29.5051 95.0936 30.4638C98.5125 31.3275 100.991 33.3777 101.872 36.0711C102.387 37.645 102.359 39.3953 101.793 40.9174C101.09 42.8109 99.6454 44.3333 97.5611 45.3762C95.737 46.2888 93.6545 46.7458 91.3197 46.7458C89.3841 46.7458 87.5789 46.4212 85.9898 45.7873C85.3592 45.5358 84.5509 45.1229 84.0606 44.8019L83.6825 44.5543V51.9999H80.3915V30.7705ZM92.9116 43.9238C94.7627 43.6597 96.1989 43.069 97.2757 42.1288C98.0908 41.417 98.6585 40.4285 98.8736 39.3464C98.9615 38.9039 98.9618 37.8587 98.8745 37.4175C98.6213 36.144 97.8958 35.0316 96.8098 34.2515C96.372 33.9371 95.4828 33.4891 94.9152 33.297C93.3124 32.7547 91.3691 32.5941 89.5892 32.8569C86.4989 33.3131 84.4102 34.8548 83.8498 37.0931C83.6025 38.0807 83.6467 39.1468 83.9734 40.0786C84.7156 42.1952 86.904 43.6037 89.9966 43.9552C90.6184 44.0259 92.3255 44.0075 92.912 43.9238H92.9116ZM103.822 30.7705H107.113V31.4721C107.113 31.858 107.12 32.1738 107.129 32.1738C107.137 32.1738 107.319 32.0597 107.531 31.9203C108.023 31.5977 108.994 31.1153 109.617 30.8841C112.305 29.8861 115.587 29.7251 118.459 30.4505C123.141 31.6328 125.898 34.872 125.637 38.8845C125.439 41.9473 123.413 44.4631 120.08 45.7852C118.993 46.2164 117.879 46.4884 116.485 46.6629C115.749 46.7549 113.766 46.7548 112.997 46.6627C110.823 46.4018 108.914 45.7523 107.426 44.7672L107.113 44.56V52H103.822V30.7705ZM116.422 43.9082C118.985 43.5231 120.792 42.4842 121.741 40.8492C122.293 39.8995 122.499 38.6361 122.295 37.4632C121.87 35.025 119.739 33.3379 116.478 32.8564C114.325 32.5386 111.895 32.8552 110.243 33.6685C108.556 34.4988 107.541 35.7384 107.195 37.3912C107.104 37.825 107.104 38.9404 107.196 39.3657C107.441 40.5105 107.996 41.4576 108.838 42.1695C109.997 43.1496 111.505 43.7333 113.463 43.9589C114.11 44.0335 115.778 44.005 116.422 43.9082H116.422ZM66.7983 46.7239C65.0526 46.5688 63.5626 46.2228 62.2955 45.6785C59.4136 44.4403 57.5934 42.3505 57.0994 39.7129C57.005 39.2091 56.9691 38.0742 57.0302 37.5319C57.387 34.3696 59.7028 31.8649 63.3642 30.6813C65.3126 30.0514 67.711 29.8457 69.8637 30.1237C73.8078 30.6331 76.7912 32.4728 78.1025 35.204C79.1702 37.4278 79.0347 40.129 77.7513 42.2057C77.1732 43.1413 76.2213 44.1067 75.2404 44.7524C73.7143 45.7569 71.8916 46.3819 69.6779 46.6596C69.2345 46.7152 67.2096 46.7604 66.7983 46.7239ZM69.1328 43.9586C70.8495 43.7753 72.2936 43.2824 73.3803 42.5087C74.2686 41.8763 74.9715 40.9442 75.2869 39.9805C75.4715 39.4164 75.5081 39.1515 75.5081 38.3807C75.5081 37.6122 75.4721 37.3495 75.2889 36.785C74.6868 34.9297 72.9256 33.5496 70.4649 33.0047C68.3074 32.5271 65.7913 32.6931 63.9271 33.4362C62.5822 33.9722 61.5207 34.84 60.8981 35.9122C60.2361 37.0523 60.086 38.6053 60.5083 39.9435C60.9633 41.3855 62.1619 42.5922 63.8113 43.2691C64.7098 43.6377 65.8222 43.8946 66.9235 43.9877C67.346 44.0234 68.6915 44.0057 69.1328 43.9586ZM137.018 46.7251C136.949 46.7172 136.708 46.6931 136.481 46.6716C134.665 46.4984 132.755 45.9213 131.355 45.1225C129.462 44.0427 128.144 42.5079 127.542 40.6836C127.134 39.4489 127.065 38.0614 127.346 36.785C127.772 34.8548 128.94 33.2158 130.754 32.0036C133.146 30.405 136.663 29.695 140.059 30.1253C142.879 30.4828 145.203 31.5206 146.821 33.1448C148.052 34.3818 148.76 35.8312 148.965 37.5342C149.018 37.9768 149.01 38.8718 148.948 39.3414C148.504 42.7232 145.839 45.3078 141.758 46.3148C140.52 46.6201 139.743 46.7125 138.288 46.7276C137.658 46.7341 137.087 46.733 137.018 46.7251ZM139.182 43.9754C141.355 43.7744 143.126 43.054 144.263 41.9089C145.033 41.1336 145.48 40.28 145.656 39.2486C145.728 38.8235 145.727 37.9374 145.654 37.4965C145.258 35.1229 143.177 33.4025 140.094 32.8991C139.354 32.7782 138.862 32.7388 138.091 32.7388C134.635 32.7388 131.953 34.0497 130.921 36.2435C130.614 36.8973 130.472 37.5721 130.472 38.3807C130.472 39.4477 130.719 40.2938 131.277 41.137C132.302 42.6849 134.245 43.6738 136.816 43.9562C137.346 44.0144 138.646 44.025 139.182 43.9754Z" fill="black"/>
</svg>
