<svg width="158" height="28" viewBox="0 0 158 28" fill="none" xmlns="http://www.w3.org/2000/svg">
<path d="M95.449 17.6431C95.449 18.2551 95.5521 18.7778 95.7582 19.2114C95.956 19.6348 96.2511 20.0037 96.6186 20.2871C96.9992 20.5624 97.4247 20.7673 97.8754 20.8922C98.3888 21.0149 98.9147 21.075 99.4421 21.0713C100.045 21.0713 100.56 21.004 100.986 20.8696C101.362 20.7478 101.713 20.5581 102.023 20.3097C102.271 20.1063 102.468 19.8448 102.595 19.5476C102.71 19.2632 102.77 18.959 102.772 18.6516C102.772 18.0387 102.632 17.5905 102.352 17.3069C102.114 17.0267 101.811 16.8111 101.47 16.6792C100.828 16.4455 100.172 16.2512 99.507 16.0974C98.7714 15.903 97.8593 15.6565 96.7707 15.3578C96.0974 15.1785 95.5319 14.9467 95.0741 14.6622C94.6686 14.3971 94.3105 14.0637 94.0152 13.6764C93.7586 13.3332 93.5647 12.9461 93.4425 12.5334C93.3395 12.1311 93.2876 11.717 93.2879 11.3012C93.2879 10.4945 93.4497 9.79973 93.7734 9.21705C94.1014 8.63057 94.5535 8.12538 95.097 7.73793C95.6581 7.34151 96.286 7.05294 96.9495 6.88654C98.3954 6.48309 99.9237 6.49854 101.361 6.93115C102.058 7.12041 102.71 7.44802 103.281 7.89503C103.837 8.32495 104.289 8.87758 104.604 9.51119C104.928 10.1383 105.089 10.8709 105.09 11.7092H102.332C102.258 10.6753 101.913 9.94863 101.297 9.52929C100.68 9.09831 99.8931 8.88282 98.9369 8.88282C98.603 8.88411 98.2702 8.92161 97.9441 8.99466C97.6182 9.05036 97.3045 9.16417 97.0176 9.33082C96.7375 9.48142 96.4958 9.69636 96.3119 9.95854C96.1358 10.2275 96.0476 10.5636 96.0471 10.967C96.0471 11.5346 96.2168 11.9828 96.5562 12.3117C96.9088 12.6254 97.3646 12.8644 97.9238 13.0286C97.9823 13.0437 98.2101 13.1109 98.6072 13.2303C99.0192 13.335 99.4752 13.4544 99.9754 13.5884C100.476 13.7225 100.96 13.8563 101.428 13.9899C101.913 14.1093 102.258 14.1989 102.464 14.2588C102.946 14.4068 103.4 14.6339 103.81 14.9311C104.179 15.202 104.5 15.5357 104.758 15.9177C105.018 16.2664 105.212 16.6609 105.331 17.0813C105.461 17.4864 105.528 17.9098 105.53 18.3361C105.53 19.2329 105.346 20.0024 104.978 20.6446C104.632 21.2643 104.149 21.7938 103.566 22.1909C102.955 22.6042 102.275 22.9005 101.559 23.065C100.81 23.2586 100.04 23.3564 99.2678 23.3559C98.4112 23.3614 97.5578 23.2483 96.7312 23.0197C95.9804 22.8175 95.2759 22.4674 94.658 21.9892C94.0611 21.5156 93.5781 20.91 93.2459 20.2186C92.8925 19.4859 92.7086 18.627 92.6941 17.6418L95.449 17.6431Z" fill="black"/>
<path d="M84.4717 6.99966H90.652V22.9997H87.971V19.2262H80.5307L78.388 22.9997H75.3799L84.4717 6.99966ZM81.748 16.9552H87.971V9.24741L86.1892 9.25129L81.748 16.9552Z" fill="black"/>
<path d="M107.576 6.99966H110.333V22.9997H107.576V6.99966Z" fill="black"/>
<path d="M74.8957 5.00016V3H66.7846L64.6305 6.78958C63.5212 6.29925 62.3243 6.0464 61.1146 6.04679C56.2292 6.04679 52.2551 10.084 52.2551 15.0469C52.2564 16.45 52.5812 17.8334 53.2036 19.086C53.826 20.3387 54.7286 21.4257 55.8391 22.2601L54.282 24.9998H47.3335V27H55.4153L57.5338 23.2731C58.6598 23.7837 59.8789 24.048 61.112 24.0489C65.9974 24.0489 69.9715 20.0117 69.9715 15.0488C69.9707 13.6336 69.6409 12.2385 69.0089 10.9773C68.377 9.71606 67.4607 8.62431 66.3347 7.79095L67.9205 5.00016H74.8957ZM68.0051 15.0469C68.0093 16.5489 67.5392 18.0127 66.6637 19.2232C65.7882 20.4337 64.5537 21.327 63.1414 21.7718C61.7292 22.2167 60.2137 22.1896 58.8177 21.6946C57.4217 21.1996 56.2188 20.2628 55.3857 19.0218C54.5527 17.7809 54.1334 16.3012 54.1896 14.8002C54.2458 13.2992 54.7744 11.8561 55.6977 10.6829C56.6211 9.50977 57.8905 8.66841 59.3195 8.28249C60.7484 7.89657 62.2615 7.98645 63.6365 8.53891L59.9596 15.01H62.232L65.3426 9.53317C66.1708 10.1852 66.8412 11.021 67.3027 11.9766C67.7642 12.9323 68.0044 13.9824 68.0051 15.0469Z" fill="black"/>
</svg>
