<svg width="210" height="76" viewBox="0 0 210 76" fill="none" xmlns="http://www.w3.org/2000/svg">
<path d="M63.3202 32.2676H66.0314L67.5645 39.8331L68.1891 43.623H68.3452L70.7868 32.2676H73.7819L76.337 43.6373H76.4932L77.0468 39.8759L78.4805 32.2676H81.2769L78.3669 46.1306H74.7756L72.3908 35.4734H72.2773L69.9351 46.1306H66.3153L63.3486 32.2676H63.3202ZM85.9896 46.3158C85.2856 46.3215 84.5829 46.2104 83.9285 45.9539C83.0144 45.5949 82.2053 44.9395 81.734 44.0761C81.2599 43.2056 81.1477 42.1826 81.1435 41.1909C81.1378 39.8802 81.3337 38.4939 82.1485 37.4695C82.9434 36.4707 84.2309 35.9635 85.4999 35.8609C86.5461 35.7768 87.6292 35.9478 88.5462 36.4593C89.2077 36.8269 89.7755 37.3797 90.1346 38.0493C90.5491 38.8187 90.6527 39.7035 90.6868 40.5669C90.701 40.9302 90.6953 41.295 90.6712 41.6583C88.3105 41.6583 85.9513 41.6583 83.5907 41.6583C83.5311 42.439 83.6886 43.2925 84.2621 43.8225C84.7405 44.2642 85.4233 44.4052 86.0734 44.418C86.5589 44.4266 87.0585 44.3696 87.4844 44.1374C87.9102 43.9051 88.2509 43.4706 88.2665 42.9833C89.0473 42.9833 89.828 42.9833 90.6087 42.9833C90.5363 43.8838 90.0168 44.7144 89.3084 45.2729C88.6001 45.8314 87.7172 46.1349 86.8243 46.256C86.5475 46.2945 86.2679 46.3144 85.9882 46.3173L85.9896 46.3158ZM83.5765 40.0611H88.2892C88.2467 38.5224 87.3666 37.7102 85.9187 37.7102C84.4708 37.7102 83.6049 38.6078 83.5765 40.0611ZM91.7386 43.2953C91.7386 41.3719 93.1439 40.1751 95.7984 40.1751H98.3393V39.5054C98.3393 38.3229 97.587 37.7815 96.3094 37.7815C95.0319 37.7815 94.3221 38.3371 94.2511 39.2205H92.0793C92.1503 37.0691 93.7827 35.8438 96.4372 35.8438C99.0917 35.8438 100.738 37.1118 100.738 39.6479V46.1306H98.7652L98.609 44.6489H98.4387C97.9986 45.7174 96.7495 46.3158 95.2022 46.3158C93.655 46.3158 91.7528 45.1048 91.7528 43.2953H91.7386ZM94.166 43.2383C94.166 44.022 94.8899 44.4921 95.9971 44.4921C97.1044 44.4921 98.3251 43.794 98.3251 42.6827V41.6568H95.9971C94.748 41.6568 94.166 42.184 94.166 42.9249V43.2383ZM102.811 46.1306V32.2676H105.21V46.1306H102.811ZM106.558 38.0094V36.029H108.361V32.7948H110.76V36.029H112.761V38.0094H110.76V44.1929H112.79V46.1306H110.433C108.957 46.1306 108.347 45.4325 108.347 44.0647V38.0237H106.544L106.558 38.0094ZM114.295 46.1306V32.2676H116.693V37.8955H116.85C117.375 36.5989 118.496 35.8438 120.185 35.8438C121.875 35.8438 123.635 37.2828 123.635 39.6337V46.1306H121.25V40.3318C121.25 38.8643 120.696 37.8812 119.092 37.8812C117.488 37.8812 116.708 38.7931 116.708 40.4315V46.1306H114.295ZM124.671 36.029H126.474V32.7948H128.873V36.029H130.874V38.0094H128.873V44.1929H130.903V46.1306H128.561C127.084 46.1306 126.474 45.4325 126.474 44.0647V38.0237H124.671V36.029ZM132.422 46.1306V38.1092C132.422 36.6987 133.231 36.0433 134.494 36.0433H138.412V37.9952H134.835V46.1306H132.422ZM138.852 43.2953C138.852 41.3719 140.257 40.1751 142.897 40.1751H145.438V39.5054C145.438 38.3229 144.686 37.7815 143.409 37.7815C142.131 37.7815 141.421 38.3371 141.35 39.2205H139.164C139.235 37.0691 140.868 35.8438 143.522 35.8438C146.177 35.8438 147.823 37.1118 147.823 39.6479V46.1306H145.85L145.694 44.6489H145.524C145.084 45.7174 143.834 46.3158 142.287 46.3158C140.74 46.3158 138.838 45.1048 138.838 43.2953H138.852ZM141.279 43.2383C141.279 44.022 142.003 44.4921 143.11 44.4921C144.218 44.4921 145.438 43.794 145.438 42.6827V41.6568H143.11C141.861 41.6568 141.279 42.184 141.279 42.9249V43.2383ZM154.14 46.3158C151.187 46.3158 149.342 44.5064 149.342 41.7708V40.3888C149.342 37.6675 151.301 35.8438 154.168 35.8438C157.036 35.8438 158.654 37.3256 158.753 39.6479H156.354C156.241 38.5793 155.389 37.8812 154.126 37.8812C152.862 37.8812 151.769 38.7361 151.769 40.4031V41.7281C151.769 43.4948 152.749 44.2784 154.154 44.2784C155.559 44.2784 156.298 43.5518 156.411 42.5117H158.796C158.668 44.7913 156.88 46.3158 154.14 46.3158ZM164.63 46.3087C163.175 46.3116 161.692 45.8072 160.79 44.6802C160.156 43.8866 159.863 42.8608 159.801 41.8449C159.784 41.5799 159.782 41.3149 159.791 41.0499C159.799 40.7849 159.819 40.5199 159.848 40.2549C159.876 39.9899 159.91 39.7263 159.95 39.4627C159.97 39.3316 159.99 39.1991 160.011 39.068C160.021 39.0068 160.027 38.9441 160.044 38.8843C160.055 38.8486 160.073 38.8187 160.092 38.7859C160.142 38.699 160.161 38.5936 160.197 38.4996C160.232 38.4055 160.275 38.3044 160.32 38.2103C160.411 38.0208 160.519 37.8399 160.641 37.6689C160.763 37.498 160.901 37.3355 161.049 37.1859C161.196 37.0363 161.358 36.8981 161.527 36.7727C161.605 36.7158 161.685 36.6602 161.767 36.6089C162.565 36.1031 163.513 35.8666 164.455 35.8395C166.03 35.7925 167.705 36.3995 168.576 37.7159C169.326 38.8486 169.378 40.2976 169.313 41.6554C166.952 41.6554 164.593 41.6554 162.233 41.6554C162.173 42.4362 162.332 43.2911 162.905 43.8211C163.384 44.2627 164.068 44.4038 164.717 44.4152C165.201 44.4237 165.702 44.3668 166.128 44.1331C166.553 43.8994 166.893 43.4663 166.908 42.9805C167.689 42.9805 168.47 42.9805 169.251 42.9805C169.177 43.908 168.629 44.7586 167.889 45.3185C167.15 45.8784 166.233 46.1662 165.311 46.2702C165.087 46.2959 164.859 46.3087 164.63 46.3087ZM166.944 40.0611C166.901 38.5224 166.021 37.7102 164.573 37.7102C163.125 37.7102 162.26 38.6078 162.217 40.0611H166.944Z" fill="black"/>
<path d="M55.8911 27V36.1372L53.26 38.7781H51.1917V29.6409L53.8228 27H55.8911Z" fill="black"/>
<path d="M51.1917 38.7781L51.1917 40.7552L48.5605 43.396H43.7626V32.2817L46.3937 29.6408H48.462V38.778L51.1917 38.7781Z" fill="black"/>
<path d="M43.7626 43.382V45.3591L41.1314 48H36.3335V34.9085L38.9646 32.2676H41.033V43.382H43.7626Z" fill="black"/>
</svg>
