<svg width="158" height="28" viewBox="0 0 158 28" fill="none" xmlns="http://www.w3.org/2000/svg">
<path d="M39.3202 8.26763H42.0314L43.5645 15.8331L44.1891 19.623H44.3452L46.7868 8.26763H49.7819L52.337 19.6373H52.4932L53.0468 15.8759L54.4805 8.26763H57.2769L54.3669 22.1306H50.7756L48.3908 11.4734H48.2773L45.9351 22.1306H42.3153L39.3486 8.26763H39.3202ZM61.9896 22.3158C61.2856 22.3215 60.5829 22.2104 59.9285 21.9539C59.0144 21.5949 58.2053 20.9395 57.734 20.0761C57.2599 19.2056 57.1477 18.1826 57.1435 17.1909C57.1378 15.8802 57.3337 14.4939 58.1485 13.4695C58.9434 12.4707 60.2309 11.9635 61.4999 11.8609C62.5461 11.7768 63.6292 11.9478 64.5462 12.4593C65.2077 12.8269 65.7755 13.3797 66.1346 14.0493C66.5491 14.8187 66.6527 15.7035 66.6868 16.5669C66.701 16.9302 66.6953 17.295 66.6712 17.6583C64.3105 17.6583 61.9513 17.6583 59.5907 17.6583C59.5311 18.439 59.6886 19.2925 60.2621 19.8225C60.7405 20.2642 61.4233 20.4052 62.0734 20.418C62.5589 20.4266 63.0585 20.3696 63.4844 20.1374C63.9102 19.9051 64.2509 19.4706 64.2665 18.9833C65.0473 18.9833 65.828 18.9833 66.6087 18.9833C66.5363 19.8838 66.0168 20.7144 65.3084 21.2729C64.6001 21.8314 63.7172 22.1349 62.8243 22.256C62.5475 22.2945 62.2679 22.3144 61.9882 22.3173L61.9896 22.3158ZM59.5765 16.0611H64.2892C64.2467 14.5224 63.3666 13.7102 61.9187 13.7102C60.4708 13.7102 59.6049 14.6078 59.5765 16.0611ZM67.7386 19.2953C67.7386 17.3719 69.1439 16.1751 71.7984 16.1751H74.3393V15.5054C74.3393 14.3229 73.587 13.7815 72.3094 13.7815C71.0319 13.7815 70.3221 14.3371 70.2511 15.2205H68.0793C68.1503 13.0691 69.7827 11.8438 72.4372 11.8438C75.0917 11.8438 76.7383 13.1118 76.7383 15.6479V22.1306H74.7652L74.609 20.6489H74.4387C73.9986 21.7174 72.7495 22.3158 71.2022 22.3158C69.655 22.3158 67.7528 21.1048 67.7528 19.2953H67.7386ZM70.166 19.2383C70.166 20.022 70.8899 20.4921 71.9971 20.4921C73.1044 20.4921 74.3251 19.794 74.3251 18.6827V17.6568H71.9971C70.748 17.6568 70.166 18.184 70.166 18.9249V19.2383ZM78.8108 22.1306V8.26763H81.2097V22.1306H78.8108ZM82.5582 14.0094V12.029H84.361V8.7948H86.76V12.029H88.7615V14.0094H86.76V20.1929H88.7899V22.1306H86.4335C84.9572 22.1306 84.3468 21.4325 84.3468 20.0647V14.0237H82.544L82.5582 14.0094ZM90.2945 22.1306V8.26763H92.6935V13.8955H92.8496C93.3748 12.5989 94.4963 11.8438 96.1855 11.8438C97.8747 11.8438 99.6348 13.2828 99.6348 15.6337V22.1306H97.2501V16.3318C97.2501 14.8643 96.6965 13.8812 95.0924 13.8812C93.4884 13.8812 92.7077 14.7931 92.7077 16.4315V22.1306H90.2945ZM100.671 12.029H102.474V8.7948H104.873V12.029H106.874V14.0094H104.873V20.1929H106.903V22.1306H104.561C103.084 22.1306 102.474 21.4325 102.474 20.0647V14.0237H100.671V12.029ZM108.422 22.1306V14.1092C108.422 12.6987 109.231 12.0433 110.494 12.0433H114.412V13.9952H110.835V22.1306H108.422ZM114.852 19.2953C114.852 17.3719 116.257 16.1751 118.897 16.1751H121.438V15.5054C121.438 14.3229 120.686 13.7815 119.409 13.7815C118.131 13.7815 117.421 14.3371 117.35 15.2205H115.164C115.235 13.0691 116.868 11.8438 119.522 11.8438C122.177 11.8438 123.823 13.1118 123.823 15.6479V22.1306H121.85L121.694 20.6489H121.524C121.084 21.7174 119.834 22.3158 118.287 22.3158C116.74 22.3158 114.838 21.1048 114.838 19.2953H114.852ZM117.279 19.2383C117.279 20.022 118.003 20.4921 119.11 20.4921C120.218 20.4921 121.438 19.794 121.438 18.6827V17.6568H119.11C117.861 17.6568 117.279 18.184 117.279 18.9249V19.2383ZM130.14 22.3158C127.187 22.3158 125.342 20.5064 125.342 17.7708V16.3888C125.342 13.6675 127.301 11.8438 130.168 11.8438C133.036 11.8438 134.654 13.3256 134.753 15.6479H132.354C132.241 14.5793 131.389 13.8812 130.126 13.8812C128.862 13.8812 127.769 14.7361 127.769 16.4031V17.7281C127.769 19.4948 128.749 20.2784 130.154 20.2784C131.559 20.2784 132.298 19.5518 132.411 18.5117H134.796C134.668 20.7913 132.88 22.3158 130.14 22.3158ZM140.63 22.3087C139.175 22.3116 137.692 21.8072 136.79 20.6802C136.156 19.8866 135.863 18.8608 135.801 17.8449C135.784 17.5799 135.782 17.3149 135.791 17.0499C135.799 16.7849 135.819 16.5199 135.848 16.2549C135.876 15.9899 135.91 15.7263 135.95 15.4627C135.97 15.3316 135.99 15.1991 136.011 15.068C136.021 15.0068 136.027 14.9441 136.044 14.8843C136.055 14.8486 136.073 14.8187 136.092 14.7859C136.142 14.699 136.161 14.5936 136.197 14.4996C136.232 14.4055 136.275 14.3044 136.32 14.2103C136.411 14.0208 136.519 13.8399 136.641 13.6689C136.763 13.498 136.901 13.3355 137.049 13.1859C137.196 13.0363 137.358 12.8981 137.527 12.7727C137.605 12.7158 137.685 12.6602 137.767 12.6089C138.565 12.1031 139.513 11.8666 140.455 11.8395C142.03 11.7925 143.705 12.3995 144.576 13.7159C145.326 14.8486 145.378 16.2976 145.313 17.6554C142.952 17.6554 140.593 17.6554 138.233 17.6554C138.173 18.4362 138.332 19.2911 138.905 19.8211C139.384 20.2627 140.068 20.4038 140.717 20.4152C141.201 20.4237 141.702 20.3668 142.128 20.1331C142.553 19.8994 142.893 19.4663 142.908 18.9805C143.689 18.9805 144.47 18.9805 145.251 18.9805C145.177 19.908 144.629 20.7586 143.889 21.3185C143.15 21.8784 142.233 22.1662 141.311 22.2702C141.087 22.2959 140.859 22.3087 140.63 22.3087ZM142.944 16.0611C142.901 14.5224 142.021 13.7102 140.573 13.7102C139.125 13.7102 138.26 14.6078 138.217 16.0611H142.944Z" fill="black"/>
<path d="M31.8911 3V12.1372L29.26 14.7781H27.1917V5.64089L29.8228 3H31.8911Z" fill="black"/>
<path d="M27.1917 14.7781L27.1917 16.7552L24.5605 19.396H19.7626V8.28171L22.3937 5.64082H24.462V14.778L27.1917 14.7781Z" fill="black"/>
<path d="M19.7626 19.382V21.3591L17.1314 24H12.3335V10.9085L14.9646 8.26763H17.033V19.382H19.7626Z" fill="black"/>
</svg>
