<svg width="158" height="30" viewBox="0 0 158 30" fill="none" xmlns="http://www.w3.org/2000/svg">
<path d="M77.1514 14.248C78.9925 15.4813 79.9993 16.6585 79.9993 19.125C79.9993 22.3763 78.3021 24.6746 74.2172 24.6746C71.1968 24.6746 68.579 23.4133 68.579 19.4893V17.9198H73.5556V19.3772C73.5556 20.3022 73.6419 20.7506 74.2748 20.7506C74.9364 20.7506 75.0515 20.3022 75.0515 19.3772C75.0515 18.6485 74.9939 18.2 73.3542 17.1069L71.4269 15.8176C69.7872 14.7245 68.5502 13.5473 68.5502 11.1089C68.5502 8.22193 70.2475 5.89557 74.3323 5.89557C77.698 5.89557 79.9418 7.43713 79.9418 10.7725V12.0618H74.9939V10.8846C74.9939 10.268 74.8789 9.81955 74.246 9.81955C73.6131 9.81955 73.4981 10.268 73.4981 10.8846C73.4981 11.4452 73.6131 11.8656 74.4474 12.4262L77.1514 14.248Z" fill="black"/>
<path d="M87.4215 24.114V22.3482C86.99 23.3573 85.9544 24.6746 84.1421 24.6746C81.4668 24.6746 81.1216 22.4043 81.1216 19.6855V6.17586H85.9256V19.3492C85.9256 20.3582 86.0407 20.7506 86.6736 20.7506C87.3064 20.7506 87.4215 20.3582 87.4215 19.3492V6.17586H92.2543V24.114C92.2543 28.8228 91.4776 30 87.4215 30H81.7545V25.9359H86.0982C86.8462 25.9359 87.4215 25.8518 87.4215 24.114Z" fill="black"/>
<path d="M98.6321 6.17586V8.22193C99.0636 7.21291 100.099 5.89557 101.911 5.89557C104.587 5.89557 104.932 8.16587 104.932 10.8846V24.3943H100.128V11.221C100.128 10.2119 100.013 9.81955 99.38 9.81955C98.7472 9.81955 98.6321 10.2119 98.6321 11.221V24.3943H93.8281V6.17586H98.6321Z" fill="black"/>
<path d="M112.719 11.221C112.719 10.2119 112.604 9.81955 111.971 9.81955C111.309 9.81955 111.223 10.2119 111.223 11.221V19.3492C111.223 20.3582 111.309 20.7506 111.971 20.7506C112.604 20.7506 112.719 20.3582 112.719 19.3492V17.2471H117.667V18.144C117.667 22.8528 115.595 24.6746 111.971 24.6746C108.317 24.6746 106.275 22.8528 106.275 18.144V12.4262C106.275 7.71742 108.317 5.89557 111.971 5.89557C115.595 5.89557 117.667 7.71742 117.667 12.4262V13.3231H112.719V11.221Z" fill="black"/>
<path d="M56.1708 4C59.3974 4 62.0132 6.54852 62.0132 9.69229V20.0809C62.0132 23.2247 59.3974 25.7734 56.1708 25.7734H45.5087C42.2821 25.7733 39.6665 23.2247 39.6665 20.0809V9.69229C39.6665 6.54854 42.2822 4.00004 45.5087 4H56.1708ZM56.1707 4.19264C56.1707 4.10261 56.0749 4.04278 55.9909 4.08035L47.6504 7.8126C46.3452 8.39663 45.5085 9.6678 45.5085 11.0672V25.5823C45.5085 25.6719 45.6035 25.7317 45.6874 25.6949L54.0032 22.0487C55.3223 21.4703 56.1706 20.1921 56.1707 18.7827V4.19264Z" fill="black"/>
</svg>
