<svg width="210" height="76" viewBox="0 0 210 76" fill="none" xmlns="http://www.w3.org/2000/svg">
<path d="M74.1793 31.6767C73.5822 30.7909 72.5624 30.2566 71.4685 30.2566H58.5431C57.4493 30.2566 56.4295 30.7909 55.8323 31.6767L54.5114 33.6362C53.9143 34.5221 52.8945 35.0563 51.8007 35.0563H50.3335V35.6774H79.6782V35.0563H78.211C77.1171 35.0563 76.0974 34.5221 75.5002 33.6362L74.1793 31.6767Z" fill="black"/>
<path d="M70.1876 37.6187C69.5904 36.7329 68.5706 36.1986 67.4768 36.1986H62.5349C61.441 36.1986 60.4212 36.7329 59.8241 37.6187L58.5032 39.5782C57.906 40.4641 56.8862 40.9983 55.7924 40.9983H50.3335V41.6194H79.6782V40.9983H74.2192C73.1254 40.9983 72.1056 40.4641 71.5085 39.5782L70.1876 37.6187Z" fill="black"/>
<path d="M68.2545 43.5607C67.6573 42.6748 66.6375 42.1406 65.5437 42.1406H64.468C63.3741 42.1406 62.3543 42.6748 61.7572 43.5607L60.4363 45.5202C59.8391 46.406 58.8194 46.9403 57.7255 46.9403H50.3335V47.5614H79.6782V46.9403H72.2861C71.1923 46.9403 70.1725 46.406 69.5754 45.5202L68.2545 43.5607Z" fill="black"/>
<path d="M85.2785 32.501V29.7594H100.181V32.501H94.4079V47.8137H91.0516V32.501H85.2785Z" fill="black"/>
<path d="M101.453 47.8137V34.273H104.654V36.5298H104.8C105.056 35.7481 105.494 35.1457 106.114 34.7226C106.74 34.2935 107.454 34.079 108.257 34.079C108.439 34.079 108.643 34.0878 108.868 34.1055C109.099 34.1172 109.291 34.1378 109.443 34.1672V37.1028C109.303 37.0558 109.081 37.0146 108.777 36.9794C108.479 36.9382 108.19 36.9176 107.91 36.9176C107.308 36.9176 106.767 37.044 106.287 37.2967C105.813 37.5436 105.439 37.8874 105.165 38.3281C104.892 38.7689 104.755 39.2773 104.755 39.8532V47.8137H101.453Z" fill="black"/>
<path d="M115.416 48.087C114.529 48.087 113.729 47.9342 113.018 47.6286C112.312 47.3171 111.753 46.8587 111.34 46.2534C110.932 45.648 110.729 44.9016 110.729 44.0142C110.729 43.2502 110.874 42.6184 111.166 42.1188C111.458 41.6193 111.856 41.2197 112.361 40.9199C112.866 40.6202 113.434 40.3939 114.067 40.2411C114.705 40.0824 115.365 39.9678 116.046 39.8973C116.867 39.815 117.532 39.7416 118.043 39.6769C118.554 39.6064 118.925 39.5006 119.156 39.3596C119.393 39.2126 119.511 38.9864 119.511 38.6808V38.6279C119.511 37.9638 119.308 37.4495 118.9 37.0851C118.493 36.7208 117.906 36.5386 117.14 36.5386C116.331 36.5386 115.69 36.709 115.216 37.0499C114.748 37.3907 114.431 37.7933 114.267 38.2576L111.185 37.8345C111.428 37.0117 111.829 36.3241 112.388 35.7716C112.948 35.2133 113.632 34.796 114.441 34.5198C115.249 34.2377 116.143 34.0967 117.122 34.0967C117.797 34.0967 118.469 34.1731 119.137 34.3259C119.806 34.4787 120.417 34.7314 120.971 35.084C121.524 35.4307 121.968 35.9039 122.302 36.5033C122.643 37.1028 122.813 37.8521 122.813 38.7513V47.8137H119.639V45.9536H119.53C119.329 46.3298 119.046 46.6824 118.681 47.0115C118.323 47.3347 117.87 47.5963 117.323 47.7961C116.781 47.99 116.146 48.087 115.416 48.087ZM116.274 45.7421C116.936 45.7421 117.511 45.6157 117.997 45.363C118.484 45.1044 118.858 44.7635 119.119 44.3404C119.387 43.9172 119.521 43.4559 119.521 42.9563V41.3607C119.417 41.443 119.241 41.5194 118.992 41.5899C118.748 41.6604 118.475 41.7221 118.171 41.775C117.867 41.8279 117.566 41.8749 117.268 41.9161C116.97 41.9572 116.711 41.9925 116.493 42.0219C116 42.0865 115.559 42.1923 115.17 42.3392C114.781 42.4862 114.474 42.6919 114.249 42.9563C114.024 43.2149 113.912 43.5499 113.912 43.9613C113.912 44.549 114.133 44.9927 114.577 45.2925C115.021 45.5922 115.587 45.7421 116.274 45.7421Z" fill="black"/>
<path d="M133.228 34.273V36.7413H124.947V34.273H133.228ZM127.017 47.8137V32.9947C127.017 32.0838 127.212 31.3256 127.601 30.7203C127.996 30.1149 128.525 29.6624 129.188 29.3627C129.851 29.063 130.586 28.9131 131.395 28.9131C131.967 28.9131 132.474 28.9572 132.918 29.0453C133.362 29.1335 133.69 29.2128 133.903 29.2833L133.246 31.7517C133.107 31.7106 132.93 31.6694 132.718 31.6283C132.505 31.5813 132.268 31.5578 132.006 31.5578C131.392 31.5578 130.957 31.7018 130.702 31.9897C130.453 32.2718 130.328 32.6773 130.328 33.2063V47.8137H127.017Z" fill="black"/>
<path d="M139.115 29.7594V47.8137H135.814V29.7594H139.115Z" fill="black"/>
<path d="M148.621 48.0782C147.253 48.0782 146.067 47.7873 145.064 47.2054C144.061 46.6236 143.283 45.8096 142.729 44.7635C142.182 43.7174 141.908 42.495 141.908 41.0962C141.908 39.6975 142.182 38.4721 142.729 37.4201C143.283 36.3681 144.061 35.5512 145.064 34.9694C146.067 34.3876 147.253 34.0967 148.621 34.0967C149.989 34.0967 151.175 34.3876 152.178 34.9694C153.181 35.5512 153.956 36.3681 154.504 37.4201C155.057 38.4721 155.333 39.6975 155.333 41.0962C155.333 42.495 155.057 43.7174 154.504 44.7635C153.956 45.8096 153.181 46.6236 152.178 47.2054C151.175 47.7873 149.989 48.0782 148.621 48.0782ZM148.639 45.5217C149.381 45.5217 150.001 45.3248 150.5 44.931C150.998 44.5314 151.369 43.9966 151.612 43.3266C151.862 42.6566 151.986 41.9102 151.986 41.0874C151.986 40.2588 151.862 39.5094 151.612 38.8394C151.369 38.1636 150.998 37.6258 150.5 37.2262C150.001 36.8266 149.381 36.6267 148.639 36.6267C147.879 36.6267 147.247 36.8266 146.742 37.2262C146.244 37.6258 145.87 38.1636 145.62 38.8394C145.377 39.5094 145.256 40.2588 145.256 41.0874C145.256 41.9102 145.377 42.6566 145.62 43.3266C145.87 43.9966 146.244 44.5314 146.742 44.931C147.247 45.3248 147.879 45.5217 148.639 45.5217Z" fill="black"/>
</svg>
