<svg width="210" height="76" viewBox="0 0 210 76" fill="none" xmlns="http://www.w3.org/2000/svg">
<path d="M101.151 38.248C102.992 39.4813 103.999 40.6585 103.999 43.125C103.999 46.3763 102.302 48.6746 98.2172 48.6746C95.1968 48.6746 92.579 47.4133 92.579 43.4893V41.9198H97.5556V43.3772C97.5556 44.3022 97.6419 44.7506 98.2748 44.7506C98.9364 44.7506 99.0515 44.3022 99.0515 43.3772C99.0515 42.6485 98.9939 42.2 97.3542 41.1069L95.4269 39.8176C93.7872 38.7245 92.5502 37.5473 92.5502 35.1089C92.5502 32.2219 94.2475 29.8956 98.3323 29.8956C101.698 29.8956 103.942 31.4371 103.942 34.7725V36.0618H98.9939V34.8846C98.9939 34.268 98.8789 33.8195 98.246 33.8195C97.6131 33.8195 97.4981 34.268 97.4981 34.8846C97.4981 35.4452 97.6131 35.8656 98.4474 36.4262L101.151 38.248Z" fill="black"/>
<path d="M111.421 48.114V46.3482C110.99 47.3573 109.954 48.6746 108.142 48.6746C105.467 48.6746 105.122 46.4043 105.122 43.6855V30.1759H109.926V43.3492C109.926 44.3582 110.041 44.7506 110.674 44.7506C111.306 44.7506 111.421 44.3582 111.421 43.3492V30.1759H116.254V48.114C116.254 52.8228 115.478 54 111.421 54H105.754V49.9359H110.098C110.846 49.9359 111.421 49.8518 111.421 48.114Z" fill="black"/>
<path d="M122.632 30.1759V32.2219C123.064 31.2129 124.099 29.8956 125.911 29.8956C128.587 29.8956 128.932 32.1659 128.932 34.8846V48.3943H124.128V35.221C124.128 34.2119 124.013 33.8195 123.38 33.8195C122.747 33.8195 122.632 34.2119 122.632 35.221V48.3943H117.828V30.1759H122.632Z" fill="black"/>
<path d="M136.719 35.221C136.719 34.2119 136.604 33.8195 135.971 33.8195C135.309 33.8195 135.223 34.2119 135.223 35.221V43.3492C135.223 44.3582 135.309 44.7506 135.971 44.7506C136.604 44.7506 136.719 44.3582 136.719 43.3492V41.2471H141.667V42.144C141.667 46.8528 139.595 48.6746 135.971 48.6746C132.317 48.6746 130.275 46.8528 130.275 42.144V36.4262C130.275 31.7174 132.317 29.8956 135.971 29.8956C139.595 29.8956 141.667 31.7174 141.667 36.4262V37.3231H136.719V35.221Z" fill="black"/>
<path d="M80.1708 28C83.3974 28 86.0132 30.5485 86.0132 33.6923V44.0809C86.0132 47.2247 83.3974 49.7734 80.1708 49.7734H69.5087C66.2821 49.7733 63.6665 47.2247 63.6665 44.0809V33.6923C63.6665 30.5485 66.2822 28 69.5087 28H80.1708ZM80.1707 28.1926C80.1707 28.1026 80.0749 28.0428 79.9909 28.0804L71.6504 31.8126C70.3452 32.3966 69.5085 33.6678 69.5085 35.0672V49.5823C69.5085 49.6719 69.6035 49.7317 69.6874 49.6949L78.0032 46.0487C79.3223 45.4703 80.1706 44.1921 80.1707 42.7827V28.1926Z" fill="black"/>
</svg>
