<svg width="158" height="28" viewBox="0 0 158 28" fill="none" xmlns="http://www.w3.org/2000/svg">
<path d="M56.3915 6.77049H59.6825V7.47214C59.6825 7.85805 59.6884 8.17379 59.6955 8.17379C59.7027 8.17379 59.9104 8.0466 60.1571 7.89115C63.0677 6.05735 67.2987 5.50515 71.0936 6.46381C74.5125 7.32749 76.991 9.37773 77.8721 12.0711C78.3869 13.645 78.3585 15.3953 77.7934 16.9174C77.0905 18.8109 75.6454 20.3333 73.5611 21.3762C71.737 22.2888 69.6545 22.7458 67.3197 22.7458C65.3841 22.7458 63.5789 22.4212 61.9898 21.7873C61.3592 21.5358 60.5509 21.1229 60.0606 20.8019L59.6825 20.5543V27.9999H56.3915V6.77049ZM68.9116 19.9238C70.7627 19.6597 72.1989 19.069 73.2757 18.1288C74.0908 17.417 74.6585 16.4285 74.8736 15.3464C74.9615 14.9039 74.9618 13.8587 74.8745 13.4175C74.6213 12.144 73.8958 11.0316 72.8098 10.2515C72.372 9.93705 71.4828 9.48908 70.9152 9.29703C69.3124 8.7547 67.3691 8.5941 65.5892 8.85687C62.4989 9.3131 60.4102 10.8548 59.8498 13.0931C59.6025 14.0807 59.6467 15.1468 59.9734 16.0786C60.7156 18.1952 62.904 19.6037 65.9966 19.9552C66.6184 20.0259 68.3255 20.0075 68.912 19.9238H68.9116ZM79.8219 6.77049H83.1129V7.47214C83.1129 7.85805 83.1201 8.17379 83.1287 8.17379C83.1375 8.17379 83.3186 8.05972 83.5312 7.92031C84.0231 7.59772 84.9942 7.11525 85.6169 6.88407C88.3048 5.88608 91.5868 5.72513 94.4588 6.45045C99.1406 7.63279 101.898 10.872 101.637 14.8845C101.439 17.9473 99.4127 20.4631 96.0801 21.7852C94.993 22.2164 93.8789 22.4884 92.4847 22.6629C91.7488 22.7549 89.7655 22.7548 88.9973 22.6627C86.8231 22.4018 84.9142 21.7523 83.4259 20.7672L83.1129 20.56V28H79.8219V6.77049ZM92.4216 19.9082C94.9853 19.5231 96.792 18.4842 97.7413 16.8492C98.2927 15.8995 98.4992 14.6361 98.2947 13.4632C97.8696 11.025 95.7394 9.3379 92.4781 8.85642C90.3255 8.53863 87.8951 8.85517 86.2429 9.66851C84.5564 10.4988 83.5414 11.7384 83.1949 13.3912C83.1039 13.825 83.1042 14.9404 83.1958 15.3657C83.4412 16.5105 83.9958 17.4576 84.8376 18.1695C85.9967 19.1496 87.5053 19.7333 89.4628 19.9589C90.1103 20.0335 91.7781 20.005 92.422 19.9082H92.4216ZM42.7983 22.7239C41.0526 22.5688 39.5626 22.2228 38.2955 21.6785C35.4136 20.4403 33.5934 18.3505 33.0994 15.7129C33.005 15.2091 32.9691 14.0742 33.0302 13.5319C33.387 10.3696 35.7028 7.86492 39.3642 6.6813C41.3126 6.05143 43.711 5.84568 45.8637 6.12371C49.8078 6.6331 52.7912 8.47275 54.1025 11.204C55.1702 13.4278 55.0347 16.129 53.7513 18.2057C53.1732 19.1413 52.2213 20.1067 51.2404 20.7524C49.7143 21.7569 47.8916 22.3819 45.6779 22.6596C45.2345 22.7152 43.2096 22.7604 42.7983 22.7239ZM45.1328 19.9586C46.8495 19.7753 48.2936 19.2824 49.3803 18.5087C50.2686 17.8763 50.9715 16.9442 51.2869 15.9805C51.4715 15.4164 51.5081 15.1515 51.5081 14.3807C51.5081 13.6122 51.4721 13.3495 51.2889 12.785C50.6868 10.9297 48.9256 9.54958 46.4649 9.00475C44.3074 8.52706 41.7913 8.69309 39.9271 9.43616C38.5822 9.97224 37.5207 10.84 36.8981 11.9122C36.2361 13.0523 36.086 14.6053 36.5083 15.9435C36.9633 17.3855 38.1619 18.5922 39.8113 19.2691C40.7098 19.6377 41.8222 19.8946 42.9235 19.9877C43.346 20.0234 44.6915 20.0057 45.1328 19.9586ZM113.018 22.7251C112.949 22.7172 112.708 22.6931 112.481 22.6716C110.665 22.4984 108.755 21.9213 107.355 21.1225C105.462 20.0427 104.144 18.5079 103.542 16.6836C103.134 15.4489 103.065 14.0614 103.346 12.785C103.772 10.8548 104.94 9.21577 106.754 8.00356C109.146 6.40496 112.663 5.69496 116.059 6.1253C118.879 6.48282 121.203 7.52059 122.821 9.1448C124.052 10.3818 124.76 11.8312 124.965 13.5342C125.018 13.9768 125.01 14.8718 124.948 15.3414C124.504 18.7232 121.839 21.3078 117.758 22.3148C116.52 22.6201 115.743 22.7125 114.288 22.7276C113.658 22.7341 113.087 22.733 113.018 22.7251ZM115.182 19.9754C117.355 19.7744 119.126 19.054 120.263 17.9089C121.033 17.1336 121.48 16.28 121.656 15.2486C121.728 14.8235 121.727 13.9374 121.654 13.4965C121.258 11.1229 119.177 9.40248 116.094 8.89906C115.354 8.7782 114.862 8.73882 114.091 8.73882C110.635 8.73882 107.953 10.0497 106.921 12.2435C106.614 12.8973 106.472 13.5721 106.472 14.3807C106.472 15.4477 106.719 16.2938 107.277 17.137C108.302 18.6849 110.245 19.6738 112.816 19.9562C113.346 20.0144 114.646 20.025 115.182 19.9754Z" fill="#808080"/>
</svg>
