<svg width="158" height="28" viewBox="0 0 158 28" fill="none" xmlns="http://www.w3.org/2000/svg">
<path d="M50.1793 7.67671C49.5822 6.79085 48.5624 6.25662 47.4685 6.25662H34.5431C33.4493 6.25662 32.4295 6.79085 31.8323 7.6767L30.5114 9.63622C29.9143 10.5221 28.8945 11.0563 27.8007 11.0563H26.3335V11.6774H55.6782V11.0563H54.211C53.1171 11.0563 52.0974 10.5221 51.5002 9.63622L50.1793 7.67671Z" fill="black"/>
<path d="M46.1876 13.6187C45.5904 12.7329 44.5706 12.1986 43.4768 12.1986H38.5349C37.441 12.1986 36.4212 12.7329 35.8241 13.6187L34.5032 15.5782C33.906 16.4641 32.8862 16.9983 31.7924 16.9983H26.3335V17.6194H55.6782V16.9983H50.2192C49.1254 16.9983 48.1056 16.4641 47.5085 15.5782L46.1876 13.6187Z" fill="black"/>
<path d="M44.2545 19.5607C43.6573 18.6748 42.6375 18.1406 41.5437 18.1406H40.468C39.3741 18.1406 38.3543 18.6748 37.7572 19.5607L36.4363 21.5202C35.8391 22.406 34.8194 22.9403 33.7255 22.9403H26.3335V23.5614H55.6782V22.9403H48.2861C47.1923 22.9403 46.1725 22.406 45.5754 21.5202L44.2545 19.5607Z" fill="black"/>
<path d="M61.2785 8.50103V5.75938H76.181V8.50103H70.4079V23.8137H67.0516V8.50103H61.2785Z" fill="black"/>
<path d="M77.4533 23.8137V10.273H80.6545V12.5298H80.8004C81.0558 11.7481 81.4935 11.1457 82.1137 10.7226C82.74 10.2935 83.4544 10.079 84.257 10.079C84.4394 10.079 84.6431 10.0878 84.868 10.1055C85.0991 10.1172 85.2906 10.1378 85.4426 10.1672V13.1028C85.3028 13.0558 85.0808 13.0146 84.7768 12.9794C84.4789 12.9382 84.1901 12.9176 83.9104 12.9176C83.3085 12.9176 82.7673 13.044 82.287 13.2967C81.8127 13.5436 81.4388 13.8874 81.1652 14.3281C80.8916 14.7689 80.7548 15.2773 80.7548 15.8532V23.8137H77.4533Z" fill="black"/>
<path d="M91.4164 24.087C90.5287 24.087 89.7291 23.9342 89.0177 23.6286C88.3125 23.3171 87.7531 22.8587 87.3396 22.2534C86.9322 21.648 86.7286 20.9016 86.7286 20.0142C86.7286 19.2502 86.8745 18.6184 87.1663 18.1188C87.4582 17.6193 87.8564 17.2197 88.3611 16.9199C88.8657 16.6202 89.4342 16.3939 90.0666 16.2411C90.705 16.0824 91.3647 15.9678 92.0457 15.8973C92.8665 15.815 93.5323 15.7416 94.043 15.6769C94.5537 15.6064 94.9246 15.5006 95.1557 15.3596C95.3928 15.2126 95.5114 14.9864 95.5114 14.6808V14.6279C95.5114 13.9638 95.3077 13.4495 94.9003 13.0851C94.493 12.7208 93.9062 12.5386 93.1401 12.5386C92.3314 12.5386 91.69 12.709 91.2157 13.0499C90.7476 13.3907 90.4314 13.7933 90.2672 14.2576L87.1846 13.8345C87.4278 13.0117 87.8291 12.3241 88.3885 11.7716C88.9478 11.2133 89.6318 10.796 90.4405 10.5198C91.2492 10.2377 92.143 10.0967 93.1219 10.0967C93.7968 10.0967 94.4686 10.1731 95.1375 10.3259C95.8063 10.4787 96.4173 10.7314 96.9706 11.084C97.5239 11.4307 97.9678 11.9039 98.3022 12.5033C98.6427 13.1028 98.8129 13.8521 98.8129 14.7513V23.8137H95.6391V21.9536H95.5296C95.329 22.3298 95.0462 22.6824 94.6814 23.0115C94.3227 23.3347 93.8697 23.5963 93.3225 23.7961C92.7814 23.99 92.146 24.087 91.4164 24.087ZM92.2737 21.7421C92.9364 21.7421 93.511 21.6157 93.9974 21.363C94.4838 21.1044 94.8578 20.7635 95.1192 20.3404C95.3867 19.9172 95.5205 19.4559 95.5205 18.9563V17.3607C95.4171 17.443 95.2408 17.5194 94.9915 17.5899C94.7483 17.6604 94.4747 17.7221 94.1707 17.775C93.8667 17.8279 93.5657 17.8749 93.2678 17.9161C92.9699 17.9572 92.7115 17.9925 92.4926 18.0219C92.0001 18.0865 91.5593 18.1923 91.1701 18.3392C90.781 18.4862 90.474 18.6919 90.249 18.9563C90.024 19.2149 89.9115 19.5499 89.9115 19.9613C89.9115 20.549 90.1335 20.9927 90.5773 21.2925C91.0212 21.5922 91.5866 21.7421 92.2737 21.7421Z" fill="black"/>
<path d="M109.228 10.273V12.7413H100.947V10.273H109.228ZM103.017 23.8137V8.99471C103.017 8.08376 103.212 7.32562 103.601 6.72028C103.996 6.11495 104.525 5.66241 105.188 5.36268C105.851 5.06295 106.586 4.91309 107.395 4.91309C107.967 4.91309 108.474 4.95716 108.918 5.04532C109.362 5.13348 109.69 5.21282 109.903 5.28334L109.246 7.75171C109.107 7.71057 108.93 7.66943 108.718 7.62829C108.505 7.58127 108.268 7.55776 108.006 7.55776C107.392 7.55776 106.957 7.70175 106.702 7.98973C106.453 8.27183 106.328 8.67734 106.328 9.20628V23.8137H103.017Z" fill="black"/>
<path d="M115.115 5.75938V23.8137H111.814V5.75938H115.115Z" fill="black"/>
<path d="M124.621 24.0782C123.253 24.0782 122.067 23.7873 121.064 23.2054C120.061 22.6236 119.283 21.8096 118.729 20.7635C118.182 19.7174 117.908 18.495 117.908 17.0962C117.908 15.6975 118.182 14.4721 118.729 13.4201C119.283 12.3681 120.061 11.5512 121.064 10.9694C122.067 10.3876 123.253 10.0967 124.621 10.0967C125.989 10.0967 127.175 10.3876 128.178 10.9694C129.181 11.5512 129.956 12.3681 130.504 13.4201C131.057 14.4721 131.333 15.6975 131.333 17.0962C131.333 18.495 131.057 19.7174 130.504 20.7635C129.956 21.8096 129.181 22.6236 128.178 23.2054C127.175 23.7873 125.989 24.0782 124.621 24.0782ZM124.639 21.5217C125.381 21.5217 126.001 21.3248 126.5 20.931C126.998 20.5314 127.369 19.9966 127.612 19.3266C127.862 18.6566 127.986 17.9102 127.986 17.0874C127.986 16.2588 127.862 15.5094 127.612 14.8394C127.369 14.1636 126.998 13.6258 126.5 13.2262C126.001 12.8266 125.381 12.6267 124.639 12.6267C123.879 12.6267 123.247 12.8266 122.742 13.2262C122.244 13.6258 121.87 14.1636 121.62 14.8394C121.377 15.5094 121.256 16.2588 121.256 17.0874C121.256 17.9102 121.377 18.6566 121.62 19.3266C121.87 19.9966 122.244 20.5314 122.742 20.931C123.247 21.3248 123.879 21.5217 124.639 21.5217Z" fill="black"/>
</svg>
