<svg width="210" height="76" viewBox="0 0 210 76" fill="none" xmlns="http://www.w3.org/2000/svg">
<path d="M60.5203 39.2534L56.6053 43.1086C56.2752 43.434 55.8289 43.6128 55.3593 43.6036C54.9036 43.5945 54.4712 43.4019 54.1504 43.0856L50.2633 39.2534L45.0001 44.4425L45.9021 45.3318C47.4783 46.8858 49.6171 47.7613 51.8488 47.7613C51.6303 47.2525 51.3095 46.7757 50.8864 46.3586L48.9475 44.4471L50.2633 43.1498L52.2022 45.0613C53.9597 46.7941 56.8239 46.7941 58.5814 45.0613L60.5203 43.1498L61.8361 44.4471L59.8972 46.3586C59.4834 46.7666 59.1579 47.2433 58.9348 47.7613H58.9394C61.1712 47.7613 63.31 46.8858 64.8862 45.3318L65.7882 44.4425L60.5203 39.2534Z" fill="black"/>
<path d="M50.2586 37.678L54.1736 33.8229C54.5037 33.4974 54.95 33.3186 55.4196 33.3278C55.8753 33.337 56.3077 33.5295 56.6285 33.8458L60.5156 37.678L65.7789 32.4889L64.8768 31.6042C63.3006 30.0503 61.1618 29.1747 58.9347 29.1747C59.1532 29.6835 59.4741 30.1603 59.8972 30.5774L61.8314 32.4889L60.5156 33.7862L58.5767 31.8747C56.8192 30.1419 53.955 30.1419 52.1975 31.8747L50.2586 33.7862L48.9475 32.4889L50.8863 30.5774C51.3001 30.1694 51.6256 29.6927 51.8488 29.1747H51.8441C49.6124 29.1747 47.4736 30.0503 45.8974 31.6042L45 32.4889L50.2586 37.678Z" fill="black"/>
<path d="M83.0418 44.3156H80.4459V42.6703H80.3996C80.0751 43.2644 79.5883 43.7443 78.9394 44.1099C78.3058 44.4603 77.6568 44.6355 76.9924 44.6355C75.4163 44.6355 74.2729 44.2546 73.5621 43.4929C72.8668 42.716 72.5191 41.5506 72.5191 39.9967V32.5016H75.1614V39.7454C75.1614 40.7813 75.3622 41.5125 75.764 41.9391C76.1657 42.3656 76.7297 42.5789 77.456 42.5789C78.0122 42.5789 78.4758 42.4951 78.8466 42.3275C79.2175 42.16 79.5188 41.9391 79.7506 41.6649C79.9824 41.3754 80.1446 41.0326 80.2373 40.6366C80.3455 40.2405 80.3996 39.8139 80.3996 39.3569V32.5016H83.0418V44.3156Z" fill="black"/>
<path d="M85.8282 32.5016H88.3314V34.2383L88.3778 34.284C88.7795 33.6289 89.3049 33.1186 89.9539 32.753C90.6029 32.3721 91.3214 32.1817 92.1094 32.1817C93.4228 32.1817 94.4581 32.5169 95.2153 33.1872C95.9724 33.8575 96.351 34.8629 96.351 36.2035V44.3156H93.7087V36.889C93.6778 35.9597 93.4769 35.2894 93.1061 34.8781C92.7352 34.4516 92.1558 34.2383 91.3677 34.2383C90.9196 34.2383 90.5179 34.3221 90.1625 34.4897C89.8071 34.642 89.5058 34.8629 89.2585 35.1523C89.0113 35.4266 88.8182 35.7541 88.6791 36.1349C88.54 36.5158 88.4705 36.9195 88.4705 37.346V44.3156H85.8282V32.5016Z" fill="black"/>
<path d="M99.2069 28H101.849V34.0326H101.896C102.081 33.7432 102.305 33.4842 102.568 33.2557C102.83 33.0272 103.116 32.8368 103.425 32.6844C103.75 32.5169 104.082 32.395 104.422 32.3188C104.777 32.2274 105.125 32.1817 105.465 32.1817C106.407 32.1817 107.226 32.3493 107.922 32.6844C108.633 33.0044 109.22 33.4538 109.683 34.0326C110.147 34.5963 110.494 35.259 110.726 36.0207C110.958 36.7824 111.074 37.5974 111.074 38.4657C111.074 39.2579 110.966 40.0272 110.749 40.7737C110.549 41.5201 110.232 42.1828 109.799 42.7617C109.382 43.3254 108.849 43.7824 108.2 44.1328C107.551 44.4679 106.786 44.6355 105.905 44.6355C105.504 44.6355 105.094 44.605 104.677 44.5441C104.275 44.4984 103.889 44.3993 103.518 44.247C103.147 44.0947 102.807 43.8966 102.498 43.6529C102.205 43.4091 101.957 43.0892 101.756 42.6931H101.71V44.3156H99.2069V28ZM108.432 38.42C108.432 37.8868 108.362 37.3689 108.223 36.8662C108.084 36.3634 107.875 35.9217 107.597 35.5408C107.319 35.1447 106.971 34.8324 106.554 34.6039C106.137 34.3602 105.658 34.2383 105.117 34.2383C104.005 34.2383 103.163 34.6192 102.591 35.3808C102.035 36.1425 101.756 37.1556 101.756 38.42C101.756 39.0141 101.826 39.5702 101.965 40.0881C102.12 40.5909 102.344 41.025 102.637 41.3906C102.931 41.7563 103.278 42.0457 103.68 42.259C104.097 42.4723 104.576 42.5789 105.117 42.5789C105.72 42.5789 106.23 42.457 106.647 42.2133C107.064 41.9695 107.404 41.6572 107.667 41.2764C107.945 40.8803 108.138 40.4385 108.246 39.951C108.37 39.4483 108.432 38.938 108.432 38.42Z" fill="black"/>
<path d="M123.829 44.3156H121.233V42.6703H121.187C120.863 43.2644 120.376 43.7443 119.727 44.1099C119.093 44.4603 118.444 44.6355 117.78 44.6355C116.204 44.6355 115.06 44.2546 114.35 43.4929C113.654 42.716 113.307 41.5506 113.307 39.9967V32.5016H115.949V39.7454C115.949 40.7813 116.15 41.5125 116.552 41.9391C116.953 42.3656 117.517 42.5789 118.243 42.5789C118.8 42.5789 119.263 42.4951 119.634 42.3275C120.005 42.16 120.306 41.9391 120.538 41.6649C120.77 41.3754 120.932 41.0326 121.025 40.6366C121.133 40.2405 121.187 39.8139 121.187 39.3569V32.5016H123.829V44.3156Z" fill="black"/>
<path d="M137.695 43.6986C137.695 45.481 137.185 46.8063 136.165 47.6746C135.161 48.5582 133.708 49 131.808 49C131.205 49 130.595 48.9391 129.977 48.8172C129.374 48.6953 128.818 48.4897 128.308 48.2002C127.813 47.9108 127.396 47.5299 127.056 47.0577C126.716 46.5854 126.515 46.0065 126.454 45.321H129.096C129.173 45.6866 129.304 45.9837 129.49 46.2122C129.675 46.4407 129.892 46.6159 130.139 46.7378C130.401 46.8749 130.687 46.9587 130.996 46.9891C131.305 47.0348 131.63 47.0577 131.97 47.0577C133.036 47.0577 133.816 46.7987 134.311 46.2807C134.805 45.7628 135.052 45.0163 135.052 44.0413V42.2361H135.006C134.635 42.8912 134.125 43.4015 133.476 43.7671C132.843 44.1328 132.155 44.3156 131.414 44.3156C130.456 44.3156 129.637 44.1556 128.957 43.8357C128.292 43.5005 127.736 43.0511 127.288 42.4875C126.855 41.9086 126.538 41.2459 126.338 40.4995C126.137 39.753 126.036 38.9532 126.036 38.1001C126.036 37.3079 126.16 36.5539 126.407 35.8379C126.654 35.1219 127.01 34.4973 127.473 33.9641C127.937 33.4157 128.501 32.9815 129.165 32.6616C129.845 32.3417 130.61 32.1817 131.46 32.1817C132.217 32.1817 132.912 32.3417 133.546 32.6616C134.179 32.9663 134.666 33.4538 135.006 34.124H135.052V32.5016H137.695V43.6986ZM131.831 42.259C132.418 42.259 132.912 42.1447 133.314 41.9162C133.731 41.6725 134.064 41.3602 134.311 40.9793C134.573 40.5832 134.759 40.1415 134.867 39.654C134.991 39.1513 135.052 38.6485 135.052 38.1458C135.052 37.6431 134.991 37.1556 134.867 36.6834C134.743 36.2111 134.55 35.7922 134.288 35.4265C134.04 35.0609 133.708 34.7715 133.291 34.5582C132.889 34.3449 132.402 34.2383 131.831 34.2383C131.244 34.2383 130.749 34.3602 130.347 34.6039C129.946 34.8477 129.621 35.1676 129.374 35.5637C129.127 35.9445 128.949 36.3863 128.841 36.889C128.733 37.3765 128.679 37.864 128.679 38.3515C128.679 38.839 128.74 39.3188 128.864 39.7911C128.988 40.2481 129.173 40.6594 129.42 41.025C129.683 41.3906 130.007 41.6877 130.394 41.9162C130.795 42.1447 131.274 42.259 131.831 42.259Z" fill="black"/>
<path d="M145.153 28H148.235L154.609 44.3156H151.503L149.951 39.9967H143.345L141.792 44.3156H138.802L145.153 28ZM144.133 37.8259H149.186L146.706 30.8107H146.636L144.133 37.8259Z" fill="black"/>
<path d="M155.884 32.5016H158.526V44.3156H155.884V32.5016Z" fill="black"/>
<path d="M162 28H159.358V30.4679H162V28Z" fill="black"/>
</svg>
