<svg width="158" height="28" viewBox="0 0 158 28" fill="none" xmlns="http://www.w3.org/2000/svg">
<path d="M36.5203 15.2534L32.6053 19.1086C32.2752 19.434 31.8289 19.6128 31.3593 19.6036C30.9036 19.5945 30.4712 19.4019 30.1504 19.0856L26.2633 15.2534L21.0001 20.4425L21.9021 21.3318C23.4783 22.8858 25.6171 23.7613 27.8488 23.7613C27.6303 23.2525 27.3095 22.7757 26.8864 22.3586L24.9475 20.4471L26.2633 19.1498L28.2022 21.0613C29.9597 22.7941 32.8239 22.7941 34.5814 21.0613L36.5203 19.1498L37.8361 20.4471L35.8972 22.3586C35.4834 22.7666 35.1579 23.2433 34.9348 23.7613H34.9394C37.1712 23.7613 39.31 22.8858 40.8862 21.3318L41.7882 20.4425L36.5203 15.2534Z" fill="black"/>
<path d="M26.2586 13.678L30.1736 9.82288C30.5037 9.49742 30.95 9.31864 31.4196 9.32781C31.8753 9.33698 32.3077 9.52951 32.6285 9.8458L36.5156 13.678L41.7789 8.48894L40.8768 7.60423C39.3006 6.05027 37.1618 5.17473 34.9347 5.17473C35.1532 5.68355 35.4741 6.16028 35.8972 6.57742L37.8314 8.48894L36.5156 9.78621L34.5767 7.87469C32.8192 6.14195 29.955 6.14195 28.1975 7.87469L26.2586 9.78621L24.9475 8.48894L26.8863 6.57742C27.3001 6.16945 27.6256 5.69272 27.8488 5.17473H27.8441C25.6124 5.17473 23.4736 6.05027 21.8974 7.60423L21 8.48894L26.2586 13.678Z" fill="black"/>
<path d="M59.0418 20.3156H56.4459V18.6703H56.3996C56.0751 19.2644 55.5883 19.7443 54.9394 20.1099C54.3058 20.4603 53.6568 20.6355 52.9924 20.6355C51.4163 20.6355 50.2729 20.2546 49.5621 19.4929C48.8668 18.716 48.5191 17.5506 48.5191 15.9967V8.50163H51.1614V15.7454C51.1614 16.7813 51.3622 17.5125 51.764 17.9391C52.1657 18.3656 52.7297 18.5789 53.456 18.5789C54.0122 18.5789 54.4758 18.4951 54.8466 18.3275C55.2175 18.16 55.5188 17.9391 55.7506 17.6649C55.9824 17.3754 56.1446 17.0326 56.2373 16.6366C56.3455 16.2405 56.3996 15.8139 56.3996 15.3569V8.50163H59.0418V20.3156Z" fill="black"/>
<path d="M61.8282 8.50163H64.3314V10.2383L64.3778 10.284C64.7795 9.62894 65.3049 9.11861 65.9539 8.75299C66.6029 8.37214 67.3214 8.18172 68.1094 8.18172C69.4228 8.18172 70.4581 8.51687 71.2153 9.18716C71.9724 9.85745 72.351 10.8629 72.351 12.2035V20.3156H69.7087V12.889C69.6778 11.9597 69.4769 11.2894 69.1061 10.8781C68.7352 10.4516 68.1558 10.2383 67.3677 10.2383C66.9196 10.2383 66.5179 10.3221 66.1625 10.4897C65.8071 10.642 65.5058 10.8629 65.2585 11.1523C65.0113 11.4266 64.8182 11.7541 64.6791 12.1349C64.54 12.5158 64.4705 12.9195 64.4705 13.346V20.3156H61.8282V8.50163Z" fill="black"/>
<path d="M75.2069 4H77.8492V10.0326H77.8955C78.081 9.7432 78.305 9.48422 78.5677 9.25571C78.8304 9.0272 79.1162 8.83678 79.4253 8.68444C79.7498 8.51687 80.082 8.39499 80.4219 8.31882C80.7773 8.22742 81.125 8.18172 81.4649 8.18172C82.4075 8.18172 83.2264 8.34929 83.9218 8.68444C84.6325 9.00435 85.2197 9.45375 85.6833 10.0326C86.1468 10.5963 86.4945 11.259 86.7263 12.0207C86.9581 12.7824 87.0739 13.5974 87.0739 14.4657C87.0739 15.2579 86.9658 16.0272 86.7495 16.7737C86.5486 17.5201 86.2318 18.1828 85.7992 18.7617C85.382 19.3254 84.8489 19.7824 84.1999 20.1328C83.5509 20.4679 82.786 20.6355 81.9053 20.6355C81.5035 20.6355 81.0941 20.605 80.6769 20.5441C80.2751 20.4984 79.8888 20.3993 79.518 20.247C79.1471 20.0947 78.8072 19.8966 78.4982 19.6529C78.2046 19.4091 77.9573 19.0892 77.7565 18.6931H77.7101V20.3156H75.2069V4ZM84.4317 14.42C84.4317 13.8868 84.3621 13.3689 84.2231 12.8662C84.084 12.3634 83.8754 11.9217 83.5973 11.5408C83.3191 11.1447 82.9715 10.8324 82.5543 10.6039C82.1371 10.3602 81.6581 10.2383 81.1172 10.2383C80.0047 10.2383 79.1626 10.6192 78.5909 11.3808C78.0346 12.1425 77.7565 13.1556 77.7565 14.42C77.7565 15.0141 77.826 15.5702 77.9651 16.0881C78.1196 16.5909 78.3436 17.025 78.6372 17.3906C78.9308 17.7563 79.2785 18.0457 79.6802 18.259C80.0974 18.4723 80.5764 18.5789 81.1172 18.5789C81.7199 18.5789 82.2298 18.457 82.647 18.2133C83.0642 17.9695 83.4041 17.6572 83.6668 17.2764C83.9449 16.8803 84.1381 16.4385 84.2462 15.951C84.3699 15.4483 84.4317 14.938 84.4317 14.42Z" fill="black"/>
<path d="M99.8293 20.3156H97.2334V18.6703H97.1871C96.8626 19.2644 96.3759 19.7443 95.7269 20.1099C95.0933 20.4603 94.4444 20.6355 93.7799 20.6355C92.2038 20.6355 91.0604 20.2546 90.3496 19.4929C89.6543 18.716 89.3066 17.5506 89.3066 15.9967V8.50163H91.9489V15.7454C91.9489 16.7813 92.1498 17.5125 92.5515 17.9391C92.9533 18.3656 93.5173 18.5789 94.2435 18.5789C94.7998 18.5789 95.2633 18.4951 95.6342 18.3275C96.005 18.16 96.3063 17.9391 96.5381 17.6649C96.7699 17.3754 96.9321 17.0326 97.0248 16.6366C97.133 16.2405 97.1871 15.8139 97.1871 15.3569V8.50163H99.8293V20.3156Z" fill="black"/>
<path d="M113.695 19.6986C113.695 21.481 113.185 22.8063 112.165 23.6746C111.161 24.5582 109.708 25 107.808 25C107.205 25 106.595 24.9391 105.977 24.8172C105.374 24.6953 104.818 24.4897 104.308 24.2002C103.813 23.9108 103.396 23.5299 103.056 23.0577C102.716 22.5854 102.515 22.0065 102.454 21.321H105.096C105.173 21.6866 105.304 21.9837 105.49 22.2122C105.675 22.4407 105.892 22.6159 106.139 22.7378C106.401 22.8749 106.687 22.9587 106.996 22.9891C107.305 23.0348 107.63 23.0577 107.97 23.0577C109.036 23.0577 109.816 22.7987 110.311 22.2807C110.805 21.7628 111.052 21.0163 111.052 20.0413V18.2361H111.006C110.635 18.8912 110.125 19.4015 109.476 19.7671C108.843 20.1328 108.155 20.3156 107.414 20.3156C106.456 20.3156 105.637 20.1556 104.957 19.8357C104.292 19.5005 103.736 19.0511 103.288 18.4875C102.855 17.9086 102.538 17.2459 102.338 16.4995C102.137 15.753 102.036 14.9532 102.036 14.1001C102.036 13.3079 102.16 12.5539 102.407 11.8379C102.654 11.1219 103.01 10.4973 103.473 9.96409C103.937 9.41567 104.501 8.9815 105.165 8.66159C105.845 8.34168 106.61 8.18172 107.46 8.18172C108.217 8.18172 108.912 8.34168 109.546 8.66159C110.179 8.96627 110.666 9.45375 111.006 10.124H111.052V8.50163H113.695V19.6986ZM107.831 18.259C108.418 18.259 108.912 18.1447 109.314 17.9162C109.731 17.6725 110.064 17.3602 110.311 16.9793C110.573 16.5832 110.759 16.1415 110.867 15.654C110.991 15.1513 111.052 14.6485 111.052 14.1458C111.052 13.6431 110.991 13.1556 110.867 12.6834C110.743 12.2111 110.55 11.7922 110.288 11.4265C110.04 11.0609 109.708 10.7715 109.291 10.5582C108.889 10.3449 108.402 10.2383 107.831 10.2383C107.244 10.2383 106.749 10.3602 106.347 10.6039C105.946 10.8477 105.621 11.1676 105.374 11.5637C105.127 11.9445 104.949 12.3863 104.841 12.889C104.733 13.3765 104.679 13.864 104.679 14.3515C104.679 14.839 104.74 15.3188 104.864 15.7911C104.988 16.2481 105.173 16.6594 105.42 17.025C105.683 17.3906 106.007 17.6877 106.394 17.9162C106.795 18.1447 107.274 18.259 107.831 18.259Z" fill="black"/>
<path d="M121.153 4H124.235L130.609 20.3156H127.503L125.951 15.9967H119.345L117.792 20.3156H114.802L121.153 4ZM120.133 13.8259H125.186L122.706 6.81066H122.636L120.133 13.8259Z" fill="black"/>
<path d="M131.884 8.50163H134.526V20.3156H131.884V8.50163Z" fill="black"/>
<path d="M138 4H135.358V6.4679H138V4Z" fill="black"/>
</svg>
