<svg width="210" height="76" viewBox="0 0 210 76" fill="none" xmlns="http://www.w3.org/2000/svg">
<path d="M119.449 41.6431C119.449 42.2551 119.552 42.7778 119.758 43.2114C119.956 43.6348 120.251 44.0037 120.619 44.2871C120.999 44.5624 121.425 44.7673 121.875 44.8922C122.389 45.0149 122.915 45.075 123.442 45.0713C124.045 45.0713 124.56 45.004 124.986 44.8696C125.362 44.7478 125.713 44.5581 126.023 44.3097C126.271 44.1063 126.468 43.8448 126.595 43.5476C126.71 43.2632 126.77 42.959 126.772 42.6516C126.772 42.0387 126.632 41.5905 126.352 41.3069C126.114 41.0267 125.811 40.8111 125.47 40.6792C124.828 40.4455 124.172 40.2512 123.507 40.0974C122.771 39.903 121.859 39.6565 120.771 39.3578C120.097 39.1785 119.532 38.9467 119.074 38.6622C118.669 38.3971 118.311 38.0637 118.015 37.6764C117.759 37.3332 117.565 36.9461 117.443 36.5334C117.34 36.1311 117.288 35.717 117.288 35.3012C117.288 34.4945 117.45 33.7997 117.773 33.217C118.101 32.6306 118.554 32.1254 119.097 31.7379C119.658 31.3415 120.286 31.0529 120.95 30.8865C122.395 30.4831 123.924 30.4985 125.361 30.9311C126.058 31.1204 126.71 31.448 127.281 31.895C127.837 32.325 128.289 32.8776 128.604 33.5112C128.928 34.1383 129.089 34.8709 129.09 35.7092H126.332C126.258 34.6753 125.913 33.9486 125.297 33.5293C124.68 33.0983 123.893 32.8828 122.937 32.8828C122.603 32.8841 122.27 32.9216 121.944 32.9947C121.618 33.0504 121.305 33.1642 121.018 33.3308C120.737 33.4814 120.496 33.6964 120.312 33.9585C120.136 34.2275 120.048 34.5636 120.047 34.967C120.047 35.5346 120.217 35.9828 120.556 36.3117C120.909 36.6254 121.365 36.8644 121.924 37.0286C121.982 37.0437 122.21 37.1109 122.607 37.2303C123.019 37.335 123.475 37.4544 123.975 37.5884C124.476 37.7225 124.96 37.8563 125.428 37.9899C125.913 38.1093 126.258 38.1989 126.464 38.2588C126.946 38.4068 127.4 38.6339 127.81 38.9311C128.179 39.202 128.5 39.5357 128.758 39.9177C129.018 40.2664 129.212 40.6609 129.331 41.0813C129.461 41.4864 129.528 41.9098 129.53 42.3361C129.53 43.2329 129.346 44.0024 128.978 44.6446C128.632 45.2643 128.149 45.7938 127.566 46.1909C126.955 46.6042 126.275 46.9005 125.559 47.065C124.81 47.2586 124.04 47.3564 123.268 47.3559C122.411 47.3614 121.558 47.2483 120.731 47.0197C119.98 46.8175 119.276 46.4674 118.658 45.9892C118.061 45.5156 117.578 44.91 117.246 44.2186C116.892 43.4859 116.709 42.627 116.694 41.6418L119.449 41.6431Z" fill="black"/>
<path d="M108.472 30.9997H114.652V46.9997H111.971V43.2262H104.531L102.388 46.9997H99.3799L108.472 30.9997ZM105.748 40.9552H111.971V33.2474L110.189 33.2513L105.748 40.9552Z" fill="black"/>
<path d="M131.576 30.9997H134.333V46.9997H131.576V30.9997Z" fill="black"/>
<path d="M98.8957 29.0002V27H90.7846L88.6305 30.7896C87.5212 30.2993 86.3243 30.0464 85.1146 30.0468C80.2292 30.0468 76.2551 34.084 76.2551 39.0469C76.2564 40.45 76.5812 41.8334 77.2036 43.086C77.826 44.3387 78.7286 45.4257 79.8391 46.2601L78.282 48.9998H71.3335V51H79.4153L81.5338 47.2731C82.6598 47.7837 83.8789 48.048 85.112 48.0489C89.9974 48.0489 93.9715 44.0117 93.9715 39.0488C93.9707 37.6336 93.6409 36.2385 93.0089 34.9773C92.377 33.7161 91.4607 32.6243 90.3347 31.7909L91.9205 29.0002H98.8957ZM92.0051 39.0469C92.0093 40.5489 91.5392 42.0127 90.6637 43.2232C89.7882 44.4337 88.5537 45.327 87.1414 45.7718C85.7292 46.2167 84.2137 46.1896 82.8177 45.6946C81.4217 45.1996 80.2188 44.2628 79.3857 43.0218C78.5527 41.7809 78.1334 40.3012 78.1896 38.8002C78.2458 37.2992 78.7744 35.8561 79.6977 34.6829C80.6211 33.5098 81.8905 32.6684 83.3195 32.2825C84.7484 31.8966 86.2615 31.9864 87.6365 32.5389L83.9596 39.01H86.232L89.3426 33.5332C90.1708 34.1852 90.8412 35.021 91.3027 35.9766C91.7642 36.9323 92.0044 37.9824 92.0051 39.0469Z" fill="black"/>
</svg>
