<svg width="48" height="48" viewBox="0 0 48 48" fill="none" xmlns="http://www.w3.org/2000/svg">
<rect width="48" height="48" rx="4" fill="black"/>
<path d="M24 34C29.5228 34 34 29.5228 34 24C34 18.4772 29.5228 14 24 14C18.4772 14 14 18.4772 14 24C14 29.5228 18.4772 34 24 34Z" stroke="white" stroke-width="2" stroke-linecap="round" stroke-linejoin="round"/>
<path d="M28.2398 19.7598L26.4358 25.1708C26.3376 25.4653 26.1722 25.733 25.9526 25.9526C25.733 26.1722 25.4653 26.3376 25.1708 26.4358L19.7598 28.2398L21.5638 22.8288C21.6619 22.5342 21.8274 22.2665 22.0469 22.0469C22.2665 21.8274 22.5342 21.6619 22.8288 21.5638L28.2398 19.7598Z" stroke="white" stroke-width="2" stroke-linecap="round" stroke-linejoin="round"/>
</svg>
