<svg preserveAspectRatio="none" width="100%" height="100%" overflow="visible" style="display: block;" viewBox="0 0 22 20" fill="none" xmlns="http://www.w3.org/2000/svg">
<g id="Group">
<path id="Vector" d="M15 19V17C15 15.9391 14.5786 14.9217 13.8284 14.1716C13.0783 13.4214 12.0609 13 11 13H5C3.93913 13 2.92172 13.4214 2.17157 14.1716C1.42143 14.9217 1 15.9391 1 17V19" stroke="var(--stroke-0, white)" stroke-width="2" stroke-linecap="round" stroke-linejoin="round"/>
<path id="Vector_2" d="M15 1.128C15.8578 1.35037 16.6174 1.85126 17.1597 2.55206C17.702 3.25286 17.9962 4.11389 17.9962 5C17.9962 5.88611 17.702 6.74714 17.1597 7.44794C16.6174 8.14874 15.8578 8.64963 15 8.872" stroke="var(--stroke-0, white)" stroke-width="2" stroke-linecap="round" stroke-linejoin="round"/>
<path id="Vector_3" d="M21 19V17C20.9993 16.1137 20.7044 15.2528 20.1614 14.5523C19.6184 13.8519 18.8581 13.3516 18 13.13" stroke="var(--stroke-0, white)" stroke-width="2" stroke-linecap="round" stroke-linejoin="round"/>
<path id="Vector_4" d="M8 9C10.2091 9 12 7.20914 12 5C12 2.79086 10.2091 1 8 1C5.79086 1 4 2.79086 4 5C4 7.20914 5.79086 9 8 9Z" stroke="var(--stroke-0, white)" stroke-width="2" stroke-linecap="round" stroke-linejoin="round"/>
</g>
</svg>
