<svg preserveAspectRatio="none" width="100%" height="100%" overflow="visible" style="display: block;" viewBox="0 0 22 22" fill="none" xmlns="http://www.w3.org/2000/svg">
<g id="Group">
<path id="Vector" d="M11 21C16.5228 21 21 16.5228 21 11C21 5.47715 16.5228 1 11 1C5.47715 1 1 5.47715 1 11C1 16.5228 5.47715 21 11 21Z" stroke="var(--stroke-0, white)" stroke-width="2" stroke-linecap="round" stroke-linejoin="round"/>
<path id="Vector_2" d="M15.24 6.76L13.436 12.171C13.3378 12.4656 13.1724 12.7333 12.9528 12.9528C12.7333 13.1724 12.4656 13.3378 12.171 13.436L6.76 15.24L8.564 9.829C8.66218 9.53442 8.82761 9.26674 9.04718 9.04718C9.26674 8.82761 9.53442 8.66218 9.829 8.564L15.24 6.76Z" stroke="var(--stroke-0, white)" stroke-width="2" stroke-linecap="round" stroke-linejoin="round"/>
</g>
</svg>
