<svg width="48" height="48" viewBox="0 0 48 48" fill="none" xmlns="http://www.w3.org/2000/svg">
<rect width="48" height="48" rx="4" fill="black"/>
<path d="M22 25C22.4295 25.5741 22.9774 26.0491 23.6066 26.3929C24.2357 26.7367 24.9315 26.9411 25.6467 26.9923C26.3618 27.0435 27.0796 26.9403 27.7513 26.6897C28.4231 26.4392 29.0331 26.047 29.54 25.54L32.54 22.54C33.4508 21.597 33.9548 20.3339 33.9434 19.023C33.932 17.712 33.4061 16.4579 32.4791 15.5309C31.5521 14.6038 30.298 14.078 28.987 14.0666C27.676 14.0552 26.413 14.5592 25.47 15.47L23.75 17.18" stroke="white" stroke-width="2" stroke-linecap="round" stroke-linejoin="round"/>
<path d="M26.0002 23.0002C25.5707 22.4261 25.0228 21.951 24.3936 21.6073C23.7645 21.2635 23.0687 21.0591 22.3535 21.0079C21.6384 20.9567 20.9206 21.0599 20.2489 21.3104C19.5771 21.561 18.9671 21.9532 18.4602 22.4602L15.4602 25.4602C14.5494 26.4032 14.0454 27.6662 14.0568 28.9772C14.0682 30.2882 14.5941 31.5423 15.5211 32.4693C16.4481 33.3964 17.7022 33.9222 19.0132 33.9336C20.3242 33.945 21.5872 33.441 22.5302 32.5302L24.2402 30.8202" stroke="white" stroke-width="2" stroke-linecap="round" stroke-linejoin="round"/>
</svg>
